<?xml version="1.0" standalone="no"?>
<svg width="1056" height="816" xmlns="http://www.w3.org/2000/svg" id="svgvm4"><g transform="translate(5,5)" style="font-family: sans-serif;"><g transform="translate(0,1)"><g><g class="tactic initial-access-ics" transform="translate(0, 0)"><g class="techniques"><g class="technique T0817" transform="translate(0, 57.57142857142857)"><rect class="cell" height="57.57142857142857" width="79.10924369747899" fill="white" stroke="#6B7279"/><polygon class="sidebar" transform="translate(0, 57.57142857142857)" points="0,0 12,0 12,0" fill="#6B7279" visibility="hidden"/><text font-size="4.4829740591888925" fill="black"><tspan x="4" y="25.035714285714285">Drive-by</tspan><tspan x="4" y="39.535714285714285">Compromise</tspan></text></g><g class="technique T0819" transform="translate(0, 115.14285714285714)"><rect class="cell" height="57.57142857142857" width="79.10924369747899" fill="white" stroke="#6B7279"/><polygon class="sidebar" transform="translate(0, 57.57142857142857)" points="0,0 12,0 12,0" fill="#6B7279" visibility="hidden"/><text font-size="4.4829740591888925" fill="black"><tspan x="4" y="16.619047619047617">Exploit</tspan><tspan x="4" y="31.285714285714285">Public-Facing</tspan><tspan x="4" y="45.95238095238095">Application</tspan></text></g><g class="technique T0866" transform="translate(0, 172.7142857142857)"><rect class="cell" height="57.57142857142857" width="79.10924369747899" fill="white" stroke="#6B7279"/><polygon class="sidebar" transform="translate(0, 57.57142857142857)" points="0,0 12,0 12,0" fill="#6B7279" visibility="hidden"/><text font-size="4.4829740591888925" fill="black"><tspan x="4" y="16.619047619047617">Exploitation</tspan><tspan x="4" y="31.285714285714285">of Remote</tspan><tspan x="4" y="45.95238095238095">Services</tspan></text></g><g class="technique T0822" transform="translate(0, 230.28571428571428)"><rect class="cell" height="57.57142857142857" width="79.10924369747899" fill="white" stroke="#6B7279"/><polygon class="sidebar" transform="translate(0, 57.57142857142857)" points="0,0 12,0 12,0" fill="#6B7279" visibility="hidden"/><text font-size="4.4829740591888925" fill="black"><tspan x="4" y="17.619047619047617">External</tspan><tspan x="4" y="32.285714285714285">Remote</tspan><tspan x="4" y="46.95238095238095">Services</tspan></text></g><g class="technique T0883" transform="translate(0, 287.8571428571429)"><rect class="cell" height="57.57142857142857" width="79.10924369747899" fill="white" stroke="#6B7279"/><polygon class="sidebar" transform="translate(0, 57.57142857142857)" points="0,0 12,0 12,0" fill="#6B7279" visibility="hidden"/><text font-size="4.4829740591888925" fill="black"><tspan x="4" y="17.619047619047617">Internet</tspan><tspan x="4" y="32.285714285714285">Accessible</tspan><tspan x="4" y="46.95238095238095">Device</tspan></text></g><g class="technique T0886" transform="translate(0, 345.4285714285714)"><rect class="cell" height="57.57142857142857" width="79.10924369747899" fill="white" stroke="#6B7279"/><polygon class="sidebar" transform="translate(0, 57.57142857142857)" points="0,0 12,0 12,0" fill="#6B7279" visibility="hidden"/><text font-size="4.4829740591888925" fill="black"><tspan x="4" y="25.035714285714285">Remote</tspan><tspan x="4" y="39.535714285714285">Services</tspan></text></g><g class="technique T0847" transform="translate(0, 403)"><rect class="cell" height="57.57142857142857" width="79.10924369747899" fill="white" stroke="#6B7279"/><polygon class="sidebar" transform="translate(0, 57.57142857142857)" points="0,0 12,0 12,0" fill="#6B7279" visibility="hidden"/><text font-size="4.4829740591888925" fill="black"><tspan x="4" y="10.071428571428571">Replication</tspan><tspan x="4" y="24.214285714285715">Through</tspan><tspan x="4" y="38.357142857142854">Removable</tspan><tspan x="4" y="52.5">Media</tspan></text></g><g class="technique T0848" transform="translate(0, 460.57142857142856)"><rect class="cell" height="57.57142857142857" width="79.10924369747899" fill="white" stroke="#6B7279"/><polygon class="sidebar" transform="translate(0, 57.57142857142857)" points="0,0 12,0 12,0" fill="#6B7279" visibility="hidden"/><text font-size="4.4829740591888925" fill="black"><tspan x="4" y="25.035714285714285">Rogue</tspan><tspan x="4" y="39.535714285714285">Master</tspan></text></g><g class="technique T0865" transform="translate(0, 518.1428571428572)"><rect class="cell" height="57.57142857142857" width="79.10924369747899" fill="white" stroke="#6B7279"/><polygon class="sidebar" transform="translate(0, 57.57142857142857)" points="0,0 12,0 12,0" fill="#6B7279" visibility="hidden"/><text font-size="4.4829740591888925" fill="black"><tspan x="4" y="24.035714285714285">Spearphishing</tspan><tspan x="4" y="38.535714285714285">Attachment</tspan></text></g><g class="technique T0862" transform="translate(0, 575.7142857142858)"><rect class="cell" height="57.57142857142857" width="79.10924369747899" fill="white" stroke="#6B7279"/><polygon class="sidebar" transform="translate(0, 57.57142857142857)" points="0,0 12,0 12,0" fill="#6B7279" visibility="hidden"/><text font-size="4.4829740591888925" fill="black"><tspan x="4" y="17.619047619047617">Supply</tspan><tspan x="4" y="32.285714285714285">Chain</tspan><tspan x="4" y="46.95238095238095">Compromise</tspan></text></g><g class="technique T0864" transform="translate(0, 633.2857142857142)"><rect class="cell" height="57.57142857142857" width="79.10924369747899" fill="white" stroke="#6B7279"/><polygon class="sidebar" transform="translate(0, 57.57142857142857)" points="0,0 12,0 12,0" fill="#6B7279" visibility="hidden"/><text font-size="4.4829740591888925" fill="black"><tspan x="4" y="17.619047619047617">Transient</tspan><tspan x="4" y="32.285714285714285">Cyber</tspan><tspan x="4" y="46.95238095238095">Asset</tspan></text></g><g class="technique T0860" transform="translate(0, 690.8571428571428)"><rect class="cell" height="57.57142857142857" width="79.10924369747899" fill="white" stroke="#6B7279"/><polygon class="sidebar" transform="translate(0, 57.57142857142857)" points="0,0 12,0 12,0" fill="#6B7279" visibility="hidden"/><text font-size="4.4829740591888925" fill="black"><tspan x="4" y="25.035714285714285">Wireless</tspan><tspan x="4" y="39.535714285714285">Compromise</tspan></text></g></g><g class="subtechniques"/><g class="tactic-label"><text font-size="9.373491214667684" fill="black" font-weight="bold"><tspan text-anchor="middle" x="39.554621848739494" y="25.035714285714285">Initial</tspan><tspan text-anchor="middle" x="39.554621848739494" y="39.535714285714285">Access</tspan></text></g></g><g class="tactic execution-ics" transform="translate(87.89915966386555, 0)"><g class="techniques"><g class="technique T0858" transform="translate(0, 57.57142857142857)"><rect class="cell" height="57.57142857142857" width="79.10924369747899" fill="white" stroke="#6B7279"/><polygon class="sidebar" transform="translate(0, 57.57142857142857)" points="0,0 12,0 12,0" fill="#6B7279" visibility="hidden"/><text font-size="4.4829740591888925" fill="black"><tspan x="4" y="17.619047619047617">Change</tspan><tspan x="4" y="32.285714285714285">Operating</tspan><tspan x="4" y="46.95238095238095">Mode</tspan></text></g><g class="technique T0807" transform="translate(0, 115.14285714285714)"><rect class="cell" height="57.57142857142857" width="79.10924369747899" fill="white" stroke="#6B7279"/><polygon class="sidebar" transform="translate(0, 57.57142857142857)" points="0,0 12,0 12,0" fill="#6B7279" visibility="hidden"/><text font-size="4.4829740591888925" fill="black"><tspan x="4" y="24.035714285714285">Command-Line</tspan><tspan x="4" y="38.535714285714285">Interface</tspan></text></g><g class="technique T0871" transform="translate(0, 172.7142857142857)"><rect class="cell" height="57.57142857142857" width="79.10924369747899" fill="white" stroke="#6B7279"/><polygon class="sidebar" transform="translate(0, 57.57142857142857)" points="0,0 12,0 12,0" fill="#6B7279" visibility="hidden"/><text font-size="4.4829740591888925" fill="black"><tspan x="4" y="17.619047619047617">Execution</tspan><tspan x="4" y="32.285714285714285">through</tspan><tspan x="4" y="46.95238095238095">API</tspan></text></g><g class="technique T0823" transform="translate(0, 230.28571428571428)"><rect class="cell" height="57.57142857142857" width="79.10924369747899" fill="white" stroke="#6B7279"/><polygon class="sidebar" transform="translate(0, 57.57142857142857)" points="0,0 12,0 12,0" fill="#6B7279" visibility="hidden"/><text font-size="4.4829740591888925" fill="black"><tspan x="4" y="17.619047619047617">Graphical</tspan><tspan x="4" y="32.285714285714285">User</tspan><tspan x="4" y="46.95238095238095">Interface</tspan></text></g><g class="technique T0874" transform="translate(0, 287.8571428571429)"><rect class="cell" height="57.57142857142857" width="79.10924369747899" fill="white" stroke="#6B7279"/><polygon class="sidebar" transform="translate(0, 57.57142857142857)" points="0,0 12,0 12,0" fill="#6B7279" visibility="hidden"/><text font-size="4.4829740591888925" fill="black"><tspan x="4" y="32.285714285714285">Hooking</tspan></text></g><g class="technique T0821" transform="translate(0, 345.4285714285714)"><rect class="cell" height="57.57142857142857" width="79.10924369747899" fill="white" stroke="#6B7279"/><polygon class="sidebar" transform="translate(0, 57.57142857142857)" points="0,0 12,0 12,0" fill="#6B7279" visibility="hidden"/><text font-size="4.4829740591888925" fill="black"><tspan x="4" y="17.619047619047617">Modify</tspan><tspan x="4" y="32.285714285714285">Controller</tspan><tspan x="4" y="46.95238095238095">Tasking</tspan></text></g><g class="technique T0834" transform="translate(0, 403)"><rect class="cell" height="57.57142857142857" width="79.10924369747899" fill="white" stroke="#6B7279"/><polygon class="sidebar" transform="translate(0, 57.57142857142857)" points="0,0 12,0 12,0" fill="#6B7279" visibility="hidden"/><text font-size="4.4829740591888925" fill="black"><tspan x="4" y="25.035714285714285">Native</tspan><tspan x="4" y="39.535714285714285">API</tspan></text></g><g class="technique T0853" transform="translate(0, 460.57142857142856)"><rect class="cell" height="57.57142857142857" width="79.10924369747899" fill="white" stroke="#6B7279"/><polygon class="sidebar" transform="translate(0, 57.57142857142857)" points="0,0 12,0 12,0" fill="#6B7279" visibility="hidden"/><text font-size="4.4829740591888925" fill="black"><tspan x="4" y="32.285714285714285">Scripting</tspan></text></g><g class="technique T0863" transform="translate(0, 518.1428571428572)"><rect class="cell" height="57.57142857142857" width="79.10924369747899" fill="white" stroke="#6B7279"/><polygon class="sidebar" transform="translate(0, 57.57142857142857)" points="0,0 12,0 12,0" fill="#6B7279" visibility="hidden"/><text font-size="4.4829740591888925" fill="black"><tspan x="4" y="25.035714285714285">User</tspan><tspan x="4" y="39.535714285714285">Execution</tspan></text></g></g><g class="subtechniques"/><g class="tactic-label"><text font-size="9.373491214667684" fill="black" font-weight="bold"><tspan text-anchor="middle" x="39.554621848739494" y="32.285714285714285">Execution</tspan></text></g></g><g class="tactic persistence-ics" transform="translate(175.7983193277311, 0)"><g class="techniques"><g class="technique T0891" transform="translate(0, 57.57142857142857)"><rect class="cell" height="57.57142857142857" width="79.10924369747899" fill="white" stroke="#6B7279"/><polygon class="sidebar" transform="translate(0, 57.57142857142857)" points="0,0 12,0 12,0" fill="#6B7279" visibility="hidden"/><text font-size="4.4829740591888925" fill="black"><tspan x="4" y="24.035714285714285">Hardcoded</tspan><tspan x="4" y="38.535714285714285">Credentials</tspan></text></g><g class="technique T0889" transform="translate(0, 115.14285714285714)"><rect class="cell" height="57.57142857142857" width="79.10924369747899" fill="white" stroke="#6B7279"/><polygon class="sidebar" transform="translate(0, 57.57142857142857)" points="0,0 12,0 12,0" fill="#6B7279" visibility="hidden"/><text font-size="4.4829740591888925" fill="black"><tspan x="4" y="25.035714285714285">Modify</tspan><tspan x="4" y="39.535714285714285">Program</tspan></text></g><g class="technique T0839" transform="translate(0, 172.7142857142857)"><rect class="cell" height="57.57142857142857" width="79.10924369747899" fill="white" stroke="#6B7279"/><polygon class="sidebar" transform="translate(0, 57.57142857142857)" points="0,0 12,0 12,0" fill="#6B7279" visibility="hidden"/><text font-size="4.4829740591888925" fill="black"><tspan x="4" y="25.035714285714285">Module</tspan><tspan x="4" y="39.535714285714285">Firmware</tspan></text></g><g class="technique T0873" transform="translate(0, 230.28571428571428)"><rect class="cell" height="57.57142857142857" width="79.10924369747899" fill="white" stroke="#6B7279"/><polygon class="sidebar" transform="translate(0, 57.57142857142857)" points="0,0 12,0 12,0" fill="#6B7279" visibility="hidden"/><text font-size="4.4829740591888925" fill="black"><tspan x="4" y="17.619047619047617">Project</tspan><tspan x="4" y="32.285714285714285">File</tspan><tspan x="4" y="46.95238095238095">Infection</tspan></text></g><g class="technique T0857" transform="translate(0, 287.8571428571429)"><rect class="cell" height="57.57142857142857" width="79.10924369747899" fill="white" stroke="#6B7279"/><polygon class="sidebar" transform="translate(0, 57.57142857142857)" points="0,0 12,0 12,0" fill="#6B7279" visibility="hidden"/><text font-size="4.4829740591888925" fill="black"><tspan x="4" y="25.035714285714285">System</tspan><tspan x="4" y="39.535714285714285">Firmware</tspan></text></g><g class="technique T0859" transform="translate(0, 345.4285714285714)"><rect class="cell" height="57.57142857142857" width="79.10924369747899" fill="white" stroke="#6B7279"/><polygon class="sidebar" transform="translate(0, 57.57142857142857)" points="0,0 12,0 12,0" fill="#6B7279" visibility="hidden"/><text font-size="4.4829740591888925" fill="black"><tspan x="4" y="25.035714285714285">Valid</tspan><tspan x="4" y="39.535714285714285">Accounts</tspan></text></g></g><g class="subtechniques"/><g class="tactic-label"><text font-size="9.373491214667684" fill="black" font-weight="bold"><tspan text-anchor="middle" x="39.554621848739494" y="31.285714285714285">Persistence</tspan></text></g></g><g class="tactic privilege-escalation" transform="translate(263.69747899159665, 0)"><g class="techniques"><g class="technique T0890" transform="translate(0, 57.57142857142857)"><rect class="cell" height="57.57142857142857" width="79.10924369747899" fill="white" stroke="#6B7279"/><polygon class="sidebar" transform="translate(0, 57.57142857142857)" points="0,0 12,0 12,0" fill="#6B7279" visibility="hidden"/><text font-size="4.4829740591888925" fill="black"><tspan x="4" y="10.071428571428571">Exploitation</tspan><tspan x="4" y="24.214285714285715">for</tspan><tspan x="4" y="38.357142857142854">Privilege</tspan><tspan x="4" y="52.5">Escalation</tspan></text></g><g class="technique T0874" transform="translate(0, 115.14285714285714)"><rect class="cell" height="57.57142857142857" width="79.10924369747899" fill="white" stroke="#6B7279"/><polygon class="sidebar" transform="translate(0, 57.57142857142857)" points="0,0 12,0 12,0" fill="#6B7279" visibility="hidden"/><text font-size="4.4829740591888925" fill="black"><tspan x="4" y="32.285714285714285">Hooking</tspan></text></g></g><g class="subtechniques"/><g class="tactic-label"><text font-size="9.373491214667684" fill="black" font-weight="bold"><tspan text-anchor="middle" x="39.554621848739494" y="25.035714285714285">Privilege</tspan><tspan text-anchor="middle" x="39.554621848739494" y="39.535714285714285">Escalation</tspan></text></g></g><g class="tactic evasion-ics" transform="translate(351.5966386554622, 0)"><g class="techniques"><g class="technique T0858" transform="translate(0, 57.57142857142857)"><rect class="cell" height="57.57142857142857" width="79.10924369747899" fill="white" stroke="#6B7279"/><polygon class="sidebar" transform="translate(0, 57.57142857142857)" points="0,0 12,0 12,0" fill="#6B7279" visibility="hidden"/><text font-size="4.4829740591888925" fill="black"><tspan x="4" y="17.619047619047617">Change</tspan><tspan x="4" y="32.285714285714285">Operating</tspan><tspan x="4" y="46.95238095238095">Mode</tspan></text></g><g class="technique T0820" transform="translate(0, 115.14285714285714)"><rect class="cell" height="57.57142857142857" width="79.10924369747899" fill="white" stroke="#6B7279"/><polygon class="sidebar" transform="translate(0, 57.57142857142857)" points="0,0 12,0 12,0" fill="#6B7279" visibility="hidden"/><text font-size="4.4829740591888925" fill="black"><tspan x="4" y="24.035714285714285">Exploitation</tspan><tspan x="4" y="38.535714285714285">for Evasion</tspan></text></g><g class="technique T0872" transform="translate(0, 172.7142857142857)"><rect class="cell" height="57.57142857142857" width="79.10924369747899" fill="white" stroke="#6B7279"/><polygon class="sidebar" transform="translate(0, 57.57142857142857)" points="0,0 12,0 12,0" fill="#6B7279" visibility="hidden"/><text font-size="4.4829740591888925" fill="black"><tspan x="4" y="17.619047619047617">Indicator</tspan><tspan x="4" y="32.285714285714285">Removal</tspan><tspan x="4" y="46.95238095238095">on Host</tspan></text></g><g class="technique T0849" transform="translate(0, 230.28571428571428)"><rect class="cell" height="57.57142857142857" width="79.10924369747899" fill="white" stroke="#6B7279"/><polygon class="sidebar" transform="translate(0, 57.57142857142857)" points="0,0 12,0 12,0" fill="#6B7279" visibility="hidden"/><text font-size="4.4829740591888925" fill="black"><tspan x="4" y="31.285714285714285">Masquerading</tspan></text></g><g class="technique T0851" transform="translate(0, 287.8571428571429)"><rect class="cell" height="57.57142857142857" width="79.10924369747899" fill="white" stroke="#6B7279"/><polygon class="sidebar" transform="translate(0, 57.57142857142857)" points="0,0 12,0 12,0" fill="#6B7279" visibility="hidden"/><text font-size="4.4829740591888925" fill="black"><tspan x="4" y="32.285714285714285">Rootkit</tspan></text></g><g class="technique T0856" transform="translate(0, 345.4285714285714)"><rect class="cell" height="57.57142857142857" width="79.10924369747899" fill="white" stroke="#6B7279"/><polygon class="sidebar" transform="translate(0, 57.57142857142857)" points="0,0 12,0 12,0" fill="#6B7279" visibility="hidden"/><text font-size="4.4829740591888925" fill="black"><tspan x="4" y="17.619047619047617">Spoof</tspan><tspan x="4" y="32.285714285714285">Reporting</tspan><tspan x="4" y="46.95238095238095">Message</tspan></text></g></g><g class="subtechniques"/><g class="tactic-label"><text font-size="9.373491214667684" fill="black" font-weight="bold"><tspan text-anchor="middle" x="39.554621848739494" y="32.285714285714285">Evasion</tspan></text></g></g><g class="tactic discovery-ics" transform="translate(439.4957983193277, 0)"><g class="techniques"><g class="technique T0840" transform="translate(0, 57.57142857142857)"><rect class="cell" height="57.57142857142857" width="79.10924369747899" fill="white" stroke="#6B7279"/><polygon class="sidebar" transform="translate(0, 57.57142857142857)" points="0,0 12,0 12,0" fill="#6B7279" visibility="hidden"/><text font-size="4.4829740591888925" fill="black"><tspan x="4" y="16.619047619047617">Network</tspan><tspan x="4" y="31.285714285714285">Connection</tspan><tspan x="4" y="45.95238095238095">Enumeration</tspan></text></g><g class="technique T0842" transform="translate(0, 115.14285714285714)"><rect class="cell" height="57.57142857142857" width="79.10924369747899" fill="white" stroke="#6B7279"/><polygon class="sidebar" transform="translate(0, 57.57142857142857)" points="0,0 12,0 12,0" fill="#6B7279" visibility="hidden"/><text font-size="4.4829740591888925" fill="black"><tspan x="4" y="25.035714285714285">Network</tspan><tspan x="4" y="39.535714285714285">Sniffing</tspan></text></g><g class="technique T0846" transform="translate(0, 172.7142857142857)"><rect class="cell" height="57.57142857142857" width="79.10924369747899" fill="white" stroke="#6B7279"/><polygon class="sidebar" transform="translate(0, 57.57142857142857)" points="0,0 12,0 12,0" fill="#6B7279" visibility="hidden"/><text font-size="4.4829740591888925" fill="black"><tspan x="4" y="17.619047619047617">Remote</tspan><tspan x="4" y="32.285714285714285">System</tspan><tspan x="4" y="46.95238095238095">Discovery</tspan></text></g><g class="technique T0888" transform="translate(0, 230.28571428571428)"><rect class="cell" height="57.57142857142857" width="79.10924369747899" fill="white" stroke="#6B7279"/><polygon class="sidebar" transform="translate(0, 57.57142857142857)" points="0,0 12,0 12,0" fill="#6B7279" visibility="hidden"/><text font-size="4.4829740591888925" fill="black"><tspan x="4" y="10.071428571428571">Remote</tspan><tspan x="4" y="24.214285714285715">System</tspan><tspan x="4" y="38.357142857142854">Information</tspan><tspan x="4" y="52.5">Discovery</tspan></text></g><g class="technique T0887" transform="translate(0, 287.8571428571429)"><rect class="cell" height="57.57142857142857" width="79.10924369747899" fill="white" stroke="#6B7279"/><polygon class="sidebar" transform="translate(0, 57.57142857142857)" points="0,0 12,0 12,0" fill="#6B7279" visibility="hidden"/><text font-size="4.4829740591888925" fill="black"><tspan x="4" y="25.035714285714285">Wireless</tspan><tspan x="4" y="39.535714285714285">Sniffing</tspan></text></g></g><g class="subtechniques"/><g class="tactic-label"><text font-size="9.373491214667684" fill="black" font-weight="bold"><tspan text-anchor="middle" x="39.554621848739494" y="32.285714285714285">Discovery</tspan></text></g></g><g class="tactic lateral-movement-ics" transform="translate(527.3949579831933, 0)"><g class="techniques"><g class="technique T0812" transform="translate(0, 57.57142857142857)"><rect class="cell" height="57.57142857142857" width="79.10924369747899" fill="white" stroke="#6B7279"/><polygon class="sidebar" transform="translate(0, 57.57142857142857)" points="0,0 12,0 12,0" fill="#6B7279" visibility="hidden"/><text font-size="4.4829740591888925" fill="black"><tspan x="4" y="24.035714285714285">Default</tspan><tspan x="4" y="38.535714285714285">Credentials</tspan></text></g><g class="technique T0866" transform="translate(0, 115.14285714285714)"><rect class="cell" height="57.57142857142857" width="79.10924369747899" fill="white" stroke="#6B7279"/><polygon class="sidebar" transform="translate(0, 57.57142857142857)" points="0,0 12,0 12,0" fill="#6B7279" visibility="hidden"/><text font-size="4.4829740591888925" fill="black"><tspan x="4" y="16.619047619047617">Exploitation</tspan><tspan x="4" y="31.285714285714285">of Remote</tspan><tspan x="4" y="45.95238095238095">Services</tspan></text></g><g class="technique T0891" transform="translate(0, 172.7142857142857)"><rect class="cell" height="57.57142857142857" width="79.10924369747899" fill="white" stroke="#6B7279"/><polygon class="sidebar" transform="translate(0, 57.57142857142857)" points="0,0 12,0 12,0" fill="#6B7279" visibility="hidden"/><text font-size="4.4829740591888925" fill="black"><tspan x="4" y="24.035714285714285">Hardcoded</tspan><tspan x="4" y="38.535714285714285">Credentials</tspan></text></g><g class="technique T0867" transform="translate(0, 230.28571428571428)"><rect class="cell" height="57.57142857142857" width="79.10924369747899" fill="white" stroke="#6B7279"/><polygon class="sidebar" transform="translate(0, 57.57142857142857)" points="0,0 12,0 12,0" fill="#6B7279" visibility="hidden"/><text font-size="4.4829740591888925" fill="black"><tspan x="4" y="17.619047619047617">Lateral</tspan><tspan x="4" y="32.285714285714285">Tool</tspan><tspan x="4" y="46.95238095238095">Transfer</tspan></text></g><g class="technique T0843" transform="translate(0, 287.8571428571429)"><rect class="cell" height="57.57142857142857" width="79.10924369747899" fill="white" stroke="#6B7279"/><polygon class="sidebar" transform="translate(0, 57.57142857142857)" points="0,0 12,0 12,0" fill="#6B7279" visibility="hidden"/><text font-size="4.4829740591888925" fill="black"><tspan x="4" y="25.035714285714285">Program</tspan><tspan x="4" y="39.535714285714285">Download</tspan></text></g><g class="technique T0886" transform="translate(0, 345.4285714285714)"><rect class="cell" height="57.57142857142857" width="79.10924369747899" fill="white" stroke="#6B7279"/><polygon class="sidebar" transform="translate(0, 57.57142857142857)" points="0,0 12,0 12,0" fill="#6B7279" visibility="hidden"/><text font-size="4.4829740591888925" fill="black"><tspan x="4" y="25.035714285714285">Remote</tspan><tspan x="4" y="39.535714285714285">Services</tspan></text></g><g class="technique T0859" transform="translate(0, 403)"><rect class="cell" height="57.57142857142857" width="79.10924369747899" fill="white" stroke="#6B7279"/><polygon class="sidebar" transform="translate(0, 57.57142857142857)" points="0,0 12,0 12,0" fill="#6B7279" visibility="hidden"/><text font-size="4.4829740591888925" fill="black"><tspan x="4" y="25.035714285714285">Valid</tspan><tspan x="4" y="39.535714285714285">Accounts</tspan></text></g></g><g class="subtechniques"/><g class="tactic-label"><text font-size="9.373491214667684" fill="black" font-weight="bold"><tspan text-anchor="middle" x="39.554621848739494" y="25.035714285714285">Lateral</tspan><tspan text-anchor="middle" x="39.554621848739494" y="39.535714285714285">Movement</tspan></text></g></g><g class="tactic collection-ics" transform="translate(615.2941176470588, 0)"><g class="techniques"><g class="technique T0830" transform="translate(0, 57.57142857142857)"><rect class="cell" height="57.57142857142857" width="79.10924369747899" fill="white" stroke="#6B7279"/><polygon class="sidebar" transform="translate(0, 57.57142857142857)" points="0,0 12,0 12,0" fill="#6B7279" visibility="hidden"/><text font-size="4.4829740591888925" fill="black"><tspan x="4" y="30.285714285714285">Adversary-in-the-Middle</tspan></text></g><g class="technique T0802" transform="translate(0, 115.14285714285714)"><rect class="cell" height="57.57142857142857" width="79.10924369747899" fill="white" stroke="#6B7279"/><polygon class="sidebar" transform="translate(0, 57.57142857142857)" points="0,0 12,0 12,0" fill="#6B7279" visibility="hidden"/><text font-size="4.4829740591888925" fill="black"><tspan x="4" y="25.035714285714285">Automated</tspan><tspan x="4" y="39.535714285714285">Collection</tspan></text></g><g class="technique T0811" transform="translate(0, 172.7142857142857)"><rect class="cell" height="57.57142857142857" width="79.10924369747899" fill="white" stroke="#6B7279"/><polygon class="sidebar" transform="translate(0, 57.57142857142857)" points="0,0 12,0 12,0" fill="#6B7279" visibility="hidden"/><text font-size="4.4829740591888925" fill="black"><tspan x="4" y="16.619047619047617">Data from</tspan><tspan x="4" y="31.285714285714285">Information</tspan><tspan x="4" y="45.95238095238095">Repositories</tspan></text></g><g class="technique T0868" transform="translate(0, 230.28571428571428)"><rect class="cell" height="57.57142857142857" width="79.10924369747899" fill="white" stroke="#6B7279"/><polygon class="sidebar" transform="translate(0, 57.57142857142857)" points="0,0 12,0 12,0" fill="#6B7279" visibility="hidden"/><text font-size="4.4829740591888925" fill="black"><tspan x="4" y="17.619047619047617">Detect</tspan><tspan x="4" y="32.285714285714285">Operating</tspan><tspan x="4" y="46.95238095238095">Mode</tspan></text></g><g class="technique T0877" transform="translate(0, 287.8571428571429)"><rect class="cell" height="57.57142857142857" width="79.10924369747899" fill="white" stroke="#6B7279"/><polygon class="sidebar" transform="translate(0, 57.57142857142857)" points="0,0 12,0 12,0" fill="#6B7279" visibility="hidden"/><text font-size="4.4829740591888925" fill="black"><tspan x="4" y="25.035714285714285">I/O</tspan><tspan x="4" y="39.535714285714285">Image</tspan></text></g><g class="technique T0801" transform="translate(0, 345.4285714285714)"><rect class="cell" height="57.57142857142857" width="79.10924369747899" fill="white" stroke="#6B7279"/><polygon class="sidebar" transform="translate(0, 57.57142857142857)" points="0,0 12,0 12,0" fill="#6B7279" visibility="hidden"/><text font-size="4.4829740591888925" fill="black"><tspan x="4" y="17.619047619047617">Monitor</tspan><tspan x="4" y="32.285714285714285">Process</tspan><tspan x="4" y="46.95238095238095">State</tspan></text></g><g class="technique T0861" transform="translate(0, 403)"><rect class="cell" height="57.57142857142857" width="79.10924369747899" fill="white" stroke="#6B7279"/><polygon class="sidebar" transform="translate(0, 57.57142857142857)" points="0,0 12,0 12,0" fill="#6B7279" visibility="hidden"/><text font-size="4.4829740591888925" fill="black"><tspan x="4" y="24.035714285714285">Point &amp; Tag</tspan><tspan x="4" y="38.535714285714285">Identification</tspan></text></g><g class="technique T0845" transform="translate(0, 460.57142857142856)"><rect class="cell" height="57.57142857142857" width="79.10924369747899" fill="white" stroke="#6B7279"/><polygon class="sidebar" transform="translate(0, 57.57142857142857)" points="0,0 12,0 12,0" fill="#6B7279" visibility="hidden"/><text font-size="4.4829740591888925" fill="black"><tspan x="4" y="25.035714285714285">Program</tspan><tspan x="4" y="39.535714285714285">Upload</tspan></text></g><g class="technique T0852" transform="translate(0, 518.1428571428572)"><rect class="cell" height="57.57142857142857" width="79.10924369747899" fill="white" stroke="#6B7279"/><polygon class="sidebar" transform="translate(0, 57.57142857142857)" points="0,0 12,0 12,0" fill="#6B7279" visibility="hidden"/><text font-size="4.4829740591888925" fill="black"><tspan x="4" y="25.035714285714285">Screen</tspan><tspan x="4" y="39.535714285714285">Capture</tspan></text></g><g class="technique T0887" transform="translate(0, 575.7142857142858)"><rect class="cell" height="57.57142857142857" width="79.10924369747899" fill="white" stroke="#6B7279"/><polygon class="sidebar" transform="translate(0, 57.57142857142857)" points="0,0 12,0 12,0" fill="#6B7279" visibility="hidden"/><text font-size="4.4829740591888925" fill="black"><tspan x="4" y="25.035714285714285">Wireless</tspan><tspan x="4" y="39.535714285714285">Sniffing</tspan></text></g></g><g class="subtechniques"/><g class="tactic-label"><text font-size="9.373491214667684" fill="black" font-weight="bold"><tspan text-anchor="middle" x="39.554621848739494" y="32.285714285714285">Collection</tspan></text></g></g><g class="tactic command-and-control-ics" transform="translate(703.1932773109244, 0)"><g class="techniques"><g class="technique T0885" transform="translate(0, 57.57142857142857)"><rect class="cell" height="57.57142857142857" width="79.10924369747899" fill="white" stroke="#6B7279"/><polygon class="sidebar" transform="translate(0, 57.57142857142857)" points="0,0 12,0 12,0" fill="#6B7279" visibility="hidden"/><text font-size="4.4829740591888925" fill="black"><tspan x="4" y="17.619047619047617">Commonly</tspan><tspan x="4" y="32.285714285714285">Used</tspan><tspan x="4" y="46.95238095238095">Port</tspan></text></g><g class="technique T0884" transform="translate(0, 115.14285714285714)"><rect class="cell" height="57.57142857142857" width="79.10924369747899" fill="white" stroke="#6B7279"/><polygon class="sidebar" transform="translate(0, 57.57142857142857)" points="0,0 12,0 12,0" fill="#6B7279" visibility="hidden"/><text font-size="4.4829740591888925" fill="black"><tspan x="4" y="25.035714285714285">Connection</tspan><tspan x="4" y="39.535714285714285">Proxy</tspan></text></g><g class="technique T0869" transform="translate(0, 172.7142857142857)"><rect class="cell" height="57.57142857142857" width="79.10924369747899" fill="white" stroke="#6B7279"/><polygon class="sidebar" transform="translate(0, 57.57142857142857)" points="0,0 12,0 12,0" fill="#6B7279" visibility="hidden"/><text font-size="4.4829740591888925" fill="black"><tspan x="4" y="10.071428571428571">Standard</tspan><tspan x="4" y="24.214285714285715">Application</tspan><tspan x="4" y="38.357142857142854">Layer</tspan><tspan x="4" y="52.5">Protocol</tspan></text></g></g><g class="subtechniques"/><g class="tactic-label"><text font-size="9.373491214667684" fill="black" font-weight="bold"><tspan text-anchor="middle" x="39.554621848739494" y="17.619047619047617">Command</tspan><tspan text-anchor="middle" x="39.554621848739494" y="32.285714285714285">and</tspan><tspan text-anchor="middle" x="39.554621848739494" y="46.95238095238095">Control</tspan></text></g></g><g class="tactic inhibit-response-function" transform="translate(791.09243697479, 0)"><g class="techniques"><g class="technique T0800" transform="translate(0, 57.57142857142857)"><rect class="cell" height="57.57142857142857" width="79.10924369747899" fill="white" stroke="#6B7279"/><polygon class="sidebar" transform="translate(0, 57.57142857142857)" points="0,0 12,0 12,0" fill="#6B7279" visibility="hidden"/><text font-size="4.4829740591888925" fill="black"><tspan x="4" y="11.071428571428571">Activate</tspan><tspan x="4" y="25.214285714285715">Firmware</tspan><tspan x="4" y="39.357142857142854">Update</tspan><tspan x="4" y="53.5">Mode</tspan></text></g><g class="technique T0878" transform="translate(0, 115.14285714285714)"><rect class="cell" height="57.57142857142857" width="79.10924369747899" fill="white" stroke="#6B7279"/><polygon class="sidebar" transform="translate(0, 57.57142857142857)" points="0,0 12,0 12,0" fill="#6B7279" visibility="hidden"/><text font-size="4.4829740591888925" fill="black"><tspan x="4" y="24.035714285714285">Alarm</tspan><tspan x="4" y="38.535714285714285">Suppression</tspan></text></g><g class="technique T0803" transform="translate(0, 172.7142857142857)"><rect class="cell" height="57.57142857142857" width="79.10924369747899" fill="white" stroke="#6B7279"/><polygon class="sidebar" transform="translate(0, 57.57142857142857)" points="0,0 12,0 12,0" fill="#6B7279" visibility="hidden"/><text font-size="4.4829740591888925" fill="black"><tspan x="4" y="17.619047619047617">Block</tspan><tspan x="4" y="32.285714285714285">Command</tspan><tspan x="4" y="46.95238095238095">Message</tspan></text></g><g class="technique T0804" transform="translate(0, 230.28571428571428)"><rect class="cell" height="57.57142857142857" width="79.10924369747899" fill="white" stroke="#6B7279"/><polygon class="sidebar" transform="translate(0, 57.57142857142857)" points="0,0 12,0 12,0" fill="#6B7279" visibility="hidden"/><text font-size="4.4829740591888925" fill="black"><tspan x="4" y="17.619047619047617">Block</tspan><tspan x="4" y="32.285714285714285">Reporting</tspan><tspan x="4" y="46.95238095238095">Message</tspan></text></g><g class="technique T0805" transform="translate(0, 287.8571428571429)"><rect class="cell" height="57.57142857142857" width="79.10924369747899" fill="white" stroke="#6B7279"/><polygon class="sidebar" transform="translate(0, 57.57142857142857)" points="0,0 12,0 12,0" fill="#6B7279" visibility="hidden"/><text font-size="4.4829740591888925" fill="black"><tspan x="4" y="17.619047619047617">Block</tspan><tspan x="4" y="32.285714285714285">Serial</tspan><tspan x="4" y="46.95238095238095">COM</tspan></text></g><g class="technique T0809" transform="translate(0, 345.4285714285714)"><rect class="cell" height="57.57142857142857" width="79.10924369747899" fill="white" stroke="#6B7279"/><polygon class="sidebar" transform="translate(0, 57.57142857142857)" points="0,0 12,0 12,0" fill="#6B7279" visibility="hidden"/><text font-size="4.4829740591888925" fill="black"><tspan x="4" y="24.035714285714285">Data</tspan><tspan x="4" y="38.535714285714285">Destruction</tspan></text></g><g class="technique T0814" transform="translate(0, 403)"><rect class="cell" height="57.57142857142857" width="79.10924369747899" fill="white" stroke="#6B7279"/><polygon class="sidebar" transform="translate(0, 57.57142857142857)" points="0,0 12,0 12,0" fill="#6B7279" visibility="hidden"/><text font-size="4.4829740591888925" fill="black"><tspan x="4" y="17.619047619047617">Denial</tspan><tspan x="4" y="32.285714285714285">of</tspan><tspan x="4" y="46.95238095238095">Service</tspan></text></g><g class="technique T0816" transform="translate(0, 460.57142857142856)"><rect class="cell" height="57.57142857142857" width="79.10924369747899" fill="white" stroke="#6B7279"/><polygon class="sidebar" transform="translate(0, 57.57142857142857)" points="0,0 12,0 12,0" fill="#6B7279" visibility="hidden"/><text font-size="4.4829740591888925" fill="black"><tspan x="4" y="23.035714285714285">Device</tspan><tspan x="4" y="37.535714285714285">Restart/Shutdown</tspan></text></g><g class="technique T0835" transform="translate(0, 518.1428571428572)"><rect class="cell" height="57.57142857142857" width="79.10924369747899" fill="white" stroke="#6B7279"/><polygon class="sidebar" transform="translate(0, 57.57142857142857)" points="0,0 12,0 12,0" fill="#6B7279" visibility="hidden"/><text font-size="4.4829740591888925" fill="black"><tspan x="4" y="25.035714285714285">Manipulate</tspan><tspan x="4" y="39.535714285714285">I/O Image</tspan></text></g><g class="technique T0838" transform="translate(0, 575.7142857142858)"><rect class="cell" height="57.57142857142857" width="79.10924369747899" fill="white" stroke="#6B7279"/><polygon class="sidebar" transform="translate(0, 57.57142857142857)" points="0,0 12,0 12,0" fill="#6B7279" visibility="hidden"/><text font-size="4.4829740591888925" fill="black"><tspan x="4" y="17.619047619047617">Modify</tspan><tspan x="4" y="32.285714285714285">Alarm</tspan><tspan x="4" y="46.95238095238095">Settings</tspan></text></g><g class="technique T0851" transform="translate(0, 633.2857142857142)"><rect class="cell" height="57.57142857142857" width="79.10924369747899" fill="white" stroke="#6B7279"/><polygon class="sidebar" transform="translate(0, 57.57142857142857)" points="0,0 12,0 12,0" fill="#6B7279" visibility="hidden"/><text font-size="4.4829740591888925" fill="black"><tspan x="4" y="32.285714285714285">Rootkit</tspan></text></g><g class="technique T0881" transform="translate(0, 690.8571428571428)"><rect class="cell" height="57.57142857142857" width="79.10924369747899" fill="white" stroke="#6B7279"/><polygon class="sidebar" transform="translate(0, 57.57142857142857)" points="0,0 12,0 12,0" fill="#6B7279" visibility="hidden"/><text font-size="4.4829740591888925" fill="black"><tspan x="4" y="25.035714285714285">Service</tspan><tspan x="4" y="39.535714285714285">Stop</tspan></text></g><g class="technique T0857" transform="translate(0, 748.4285714285714)"><rect class="cell" height="57.57142857142857" width="79.10924369747899" fill="white" stroke="#6B7279"/><polygon class="sidebar" transform="translate(0, 57.57142857142857)" points="0,0 12,0 12,0" fill="#6B7279" visibility="hidden"/><text font-size="4.4829740591888925" fill="black"><tspan x="4" y="25.035714285714285">System</tspan><tspan x="4" y="39.535714285714285">Firmware</tspan></text></g></g><g class="subtechniques"/><g class="tactic-label"><text font-size="9.373491214667684" fill="black" font-weight="bold"><tspan text-anchor="middle" x="39.554621848739494" y="17.619047619047617">Inhibit</tspan><tspan text-anchor="middle" x="39.554621848739494" y="32.285714285714285">Response</tspan><tspan text-anchor="middle" x="39.554621848739494" y="46.95238095238095">Function</tspan></text></g></g><g class="tactic impair-process-control" transform="translate(878.9915966386554, 0)"><g class="techniques"><g class="technique T0806" transform="translate(0, 57.57142857142857)"><rect class="cell" height="57.57142857142857" width="79.10924369747899" fill="white" stroke="#6B7279"/><polygon class="sidebar" transform="translate(0, 57.57142857142857)" points="0,0 12,0 12,0" fill="#6B7279" visibility="hidden"/><text font-size="4.4829740591888925" fill="black"><tspan x="4" y="17.619047619047617">Brute</tspan><tspan x="4" y="32.285714285714285">Force</tspan><tspan x="4" y="46.95238095238095">I/O</tspan></text></g><g class="technique T0836" transform="translate(0, 115.14285714285714)"><rect class="cell" height="57.57142857142857" width="79.10924369747899" fill="white" stroke="#6B7279"/><polygon class="sidebar" transform="translate(0, 57.57142857142857)" points="0,0 12,0 12,0" fill="#6B7279" visibility="hidden"/><text font-size="4.4829740591888925" fill="black"><tspan x="4" y="25.035714285714285">Modify</tspan><tspan x="4" y="39.535714285714285">Parameter</tspan></text></g><g class="technique T0839" transform="translate(0, 172.7142857142857)"><rect class="cell" height="57.57142857142857" width="79.10924369747899" fill="white" stroke="#6B7279"/><polygon class="sidebar" transform="translate(0, 57.57142857142857)" points="0,0 12,0 12,0" fill="#6B7279" visibility="hidden"/><text font-size="4.4829740591888925" fill="black"><tspan x="4" y="25.035714285714285">Module</tspan><tspan x="4" y="39.535714285714285">Firmware</tspan></text></g><g class="technique T0856" transform="translate(0, 230.28571428571428)"><rect class="cell" height="57.57142857142857" width="79.10924369747899" fill="white" stroke="#6B7279"/><polygon class="sidebar" transform="translate(0, 57.57142857142857)" points="0,0 12,0 12,0" fill="#6B7279" visibility="hidden"/><text font-size="4.4829740591888925" fill="black"><tspan x="4" y="17.619047619047617">Spoof</tspan><tspan x="4" y="32.285714285714285">Reporting</tspan><tspan x="4" y="46.95238095238095">Message</tspan></text></g><g class="technique T0855" transform="translate(0, 287.8571428571429)"><rect class="cell" height="57.57142857142857" width="79.10924369747899" fill="white" stroke="#6B7279"/><polygon class="sidebar" transform="translate(0, 57.57142857142857)" points="0,0 12,0 12,0" fill="#6B7279" visibility="hidden"/><text font-size="4.4829740591888925" fill="black"><tspan x="4" y="16.619047619047617">Unauthorized</tspan><tspan x="4" y="31.285714285714285">Command</tspan><tspan x="4" y="45.95238095238095">Message</tspan></text></g></g><g class="subtechniques"/><g class="tactic-label"><text font-size="9.373491214667684" fill="black" font-weight="bold"><tspan text-anchor="middle" x="39.554621848739494" y="17.619047619047617">Impair</tspan><tspan text-anchor="middle" x="39.554621848739494" y="32.285714285714285">Process</tspan><tspan text-anchor="middle" x="39.554621848739494" y="46.95238095238095">Control</tspan></text></g></g><g class="tactic impact-ics" transform="translate(966.890756302521, 0)"><g class="techniques"><g class="technique T0879" transform="translate(0, 57.57142857142857)"><rect class="cell" height="57.57142857142857" width="79.10924369747899" fill="white" stroke="#6B7279"/><polygon class="sidebar" transform="translate(0, 57.57142857142857)" points="0,0 12,0 12,0" fill="#6B7279" visibility="hidden"/><text font-size="4.4829740591888925" fill="black"><tspan x="4" y="17.619047619047617">Damage</tspan><tspan x="4" y="32.285714285714285">to</tspan><tspan x="4" y="46.95238095238095">Property</tspan></text></g><g class="technique T0813" transform="translate(0, 115.14285714285714)"><rect class="cell" height="57.57142857142857" width="79.10924369747899" fill="white" stroke="#6B7279"/><polygon class="sidebar" transform="translate(0, 57.57142857142857)" points="0,0 12,0 12,0" fill="#6B7279" visibility="hidden"/><text font-size="4.4829740591888925" fill="black"><tspan x="4" y="17.619047619047617">Denial</tspan><tspan x="4" y="32.285714285714285">of</tspan><tspan x="4" y="46.95238095238095">Control</tspan></text></g><g class="technique T0815" transform="translate(0, 172.7142857142857)"><rect class="cell" height="57.57142857142857" width="79.10924369747899" fill="white" stroke="#6B7279"/><polygon class="sidebar" transform="translate(0, 57.57142857142857)" points="0,0 12,0 12,0" fill="#6B7279" visibility="hidden"/><text font-size="4.4829740591888925" fill="black"><tspan x="4" y="25.035714285714285">Denial</tspan><tspan x="4" y="39.535714285714285">of View</tspan></text></g><g class="technique T0826" transform="translate(0, 230.28571428571428)"><rect class="cell" height="57.57142857142857" width="79.10924369747899" fill="white" stroke="#6B7279"/><polygon class="sidebar" transform="translate(0, 57.57142857142857)" points="0,0 12,0 12,0" fill="#6B7279" visibility="hidden"/><text font-size="4.4829740591888925" fill="black"><tspan x="4" y="24.035714285714285">Loss of</tspan><tspan x="4" y="38.535714285714285">Availability</tspan></text></g><g class="technique T0827" transform="translate(0, 287.8571428571429)"><rect class="cell" height="57.57142857142857" width="79.10924369747899" fill="white" stroke="#6B7279"/><polygon class="sidebar" transform="translate(0, 57.57142857142857)" points="0,0 12,0 12,0" fill="#6B7279" visibility="hidden"/><text font-size="4.4829740591888925" fill="black"><tspan x="4" y="25.035714285714285">Loss of</tspan><tspan x="4" y="39.535714285714285">Control</tspan></text></g><g class="technique T0828" transform="translate(0, 345.4285714285714)"><rect class="cell" height="57.57142857142857" width="79.10924369747899" fill="white" stroke="#6B7279"/><polygon class="sidebar" transform="translate(0, 57.57142857142857)" points="0,0 12,0 12,0" fill="#6B7279" visibility="hidden"/><text font-size="4.4829740591888925" fill="black"><tspan x="4" y="16.619047619047617">Loss of</tspan><tspan x="4" y="31.285714285714285">Productivity</tspan><tspan x="4" y="45.95238095238095">and Revenue</tspan></text></g><g class="technique T0837" transform="translate(0, 403)"><rect class="cell" height="57.57142857142857" width="79.10924369747899" fill="white" stroke="#6B7279"/><polygon class="sidebar" transform="translate(0, 57.57142857142857)" points="0,0 12,0 12,0" fill="#6B7279" visibility="hidden"/><text font-size="4.4829740591888925" fill="black"><tspan x="4" y="25.035714285714285">Loss of</tspan><tspan x="4" y="39.535714285714285">Protection</tspan></text></g><g class="technique T0880" transform="translate(0, 460.57142857142856)"><rect class="cell" height="57.57142857142857" width="79.10924369747899" fill="white" stroke="#6B7279"/><polygon class="sidebar" transform="translate(0, 57.57142857142857)" points="0,0 12,0 12,0" fill="#6B7279" visibility="hidden"/><text font-size="4.4829740591888925" fill="black"><tspan x="4" y="25.035714285714285">Loss of</tspan><tspan x="4" y="39.535714285714285">Safety</tspan></text></g><g class="technique T0829" transform="translate(0, 518.1428571428572)"><rect class="cell" height="57.57142857142857" width="79.10924369747899" fill="white" stroke="#6B7279"/><polygon class="sidebar" transform="translate(0, 57.57142857142857)" points="0,0 12,0 12,0" fill="#6B7279" visibility="hidden"/><text font-size="4.4829740591888925" fill="black"><tspan x="4" y="25.035714285714285">Loss</tspan><tspan x="4" y="39.535714285714285">of View</tspan></text></g><g class="technique T0831" transform="translate(0, 575.7142857142858)"><rect class="cell" height="57.57142857142857" width="79.10924369747899" fill="white" stroke="#6B7279"/><polygon class="sidebar" transform="translate(0, 57.57142857142857)" points="0,0 12,0 12,0" fill="#6B7279" visibility="hidden"/><text font-size="4.4829740591888925" fill="black"><tspan x="4" y="24.035714285714285">Manipulation</tspan><tspan x="4" y="38.535714285714285">of Control</tspan></text></g><g class="technique T0832" transform="translate(0, 633.2857142857142)"><rect class="cell" height="57.57142857142857" width="79.10924369747899" fill="white" stroke="#6B7279"/><polygon class="sidebar" transform="translate(0, 57.57142857142857)" points="0,0 12,0 12,0" fill="#6B7279" visibility="hidden"/><text font-size="4.4829740591888925" fill="black"><tspan x="4" y="24.035714285714285">Manipulation</tspan><tspan x="4" y="38.535714285714285">of View</tspan></text></g><g class="technique T0882" transform="translate(0, 690.8571428571428)"><rect class="cell" height="57.57142857142857" width="79.10924369747899" fill="white" stroke="#6B7279"/><polygon class="sidebar" transform="translate(0, 57.57142857142857)" points="0,0 12,0 12,0" fill="#6B7279" visibility="hidden"/><text font-size="4.4829740591888925" fill="black"><tspan x="4" y="16.619047619047617">Theft of</tspan><tspan x="4" y="31.285714285714285">Operational</tspan><tspan x="4" y="45.95238095238095">Information</tspan></text></g></g><g class="subtechniques"/><g class="tactic-label"><text font-size="9.373491214667684" fill="black" font-weight="bold"><tspan text-anchor="middle" x="39.554621848739494" y="32.285714285714285">Impact</tspan></text></g></g></g></g></g></svg>