<?xml version="1.0" standalone="no"?>
<svg width="1056" height="816" xmlns="http://www.w3.org/2000/svg" id="svgvm3"><g transform="translate(5,5)" style="font-family: sans-serif;"><g transform="translate(0,1)"><g><g class="tactic initial-access" transform="translate(0, 0)"><g class="techniques"><g class="technique T1456" transform="translate(0, 53.733333333333334)"><rect class="cell" height="53.733333333333334" width="79.10924369747899" fill="white" stroke="#6B7279"/><polygon class="sidebar" transform="translate(0, 53.733333333333334)" points="0,0 12,0 12,0" fill="#6B7279" visibility="hidden"/><text font-size="4.4829740591888925" fill="black"><tspan x="4" y="23.116666666666667">Drive-By</tspan><tspan x="4" y="37.61666666666667">Compromise</tspan></text></g><g class="technique T1461" transform="translate(0, 107.46666666666667)"><rect class="cell" height="53.733333333333334" width="79.10924369747899" fill="white" stroke="#6B7279"/><polygon class="sidebar" transform="translate(0, 53.733333333333334)" points="0,0 12,0 12,0" fill="#6B7279" visibility="hidden"/><text font-size="4.4829740591888925" fill="black"><tspan x="4" y="23.116666666666667">Lockscreen</tspan><tspan x="4" y="37.61666666666667">Bypass</tspan></text></g><g class="technique T1458" transform="translate(0, 161.20000000000002)"><rect class="cell" height="53.733333333333334" width="79.10924369747899" fill="white" stroke="#6B7279"/><polygon class="sidebar" transform="translate(0, 53.733333333333334)" points="0,0 12,0 12,0" fill="#6B7279" visibility="hidden"/><text font-size="4.4829740591888925" fill="black"><tspan x="4" y="9.591666666666667">Replication</tspan><tspan x="4" y="22.775">Through</tspan><tspan x="4" y="35.958333333333336">Removable</tspan><tspan x="4" y="49.141666666666666">Media</tspan></text></g><g class="technique T1474" transform="translate(0, 214.93333333333334)"><rect class="cell" height="53.733333333333334" width="79.10924369747899" fill="white" stroke="#6B7279"/><polygon class="sidebar" transform="translate(0, 53.733333333333334)" points="0,0 12,0 12,12" fill="#6B7279" visibility="hidden"/><text font-size="4.4829740591888925" fill="black"><tspan x="4" y="15.7">Supply</tspan><tspan x="4" y="30.366666666666667">Chain</tspan><tspan x="4" y="45.03333333333333">Compromise</tspan></text></g></g><g class="subtechniques"/><g class="tactic-label"><text font-size="8.59236694677871" fill="black" font-weight="bold"><tspan text-anchor="middle" x="39.554621848739494" y="23.116666666666667">Initial</tspan><tspan text-anchor="middle" x="39.554621848739494" y="37.61666666666667">Access</tspan></text></g></g><g class="tactic execution" transform="translate(87.89915966386555, 0)"><g class="techniques"><g class="technique T1623" transform="translate(0, 53.733333333333334)"><rect class="cell" height="53.733333333333334" width="79.10924369747899" fill="white" stroke="#6B7279"/><polygon class="sidebar" transform="translate(0, 53.733333333333334)" points="0,0 12,0 12,12" fill="#6B7279" visibility="hidden"/><text font-size="4.4829740591888925" fill="black"><tspan x="4" y="14.7">Command and</tspan><tspan x="4" y="29.366666666666667">Scripting</tspan><tspan x="4" y="44.03333333333333">Interpreter</tspan></text></g><g class="technique T1575" transform="translate(0, 107.46666666666667)"><rect class="cell" height="53.733333333333334" width="79.10924369747899" fill="white" stroke="#6B7279"/><polygon class="sidebar" transform="translate(0, 53.733333333333334)" points="0,0 12,0 12,0" fill="#6B7279" visibility="hidden"/><text font-size="4.4829740591888925" fill="black"><tspan x="4" y="23.116666666666667">Native</tspan><tspan x="4" y="37.61666666666667">API</tspan></text></g><g class="technique T1603" transform="translate(0, 161.20000000000002)"><rect class="cell" height="53.733333333333334" width="79.10924369747899" fill="white" stroke="#6B7279"/><polygon class="sidebar" transform="translate(0, 53.733333333333334)" points="0,0 12,0 12,0" fill="#6B7279" visibility="hidden"/><text font-size="4.4829740591888925" fill="black"><tspan x="4" y="23.116666666666667">Scheduled</tspan><tspan x="4" y="37.61666666666667">Task/Job</tspan></text></g></g><g class="subtechniques"/><g class="tactic-label"><text font-size="8.59236694677871" fill="black" font-weight="bold"><tspan text-anchor="middle" x="39.554621848739494" y="30.366666666666667">Execution</tspan></text></g></g><g class="tactic persistence" transform="translate(175.7983193277311, 0)"><g class="techniques"><g class="technique T1398" transform="translate(0, 53.733333333333334)"><rect class="cell" height="53.733333333333334" width="79.10924369747899" fill="white" stroke="#6B7279"/><polygon class="sidebar" transform="translate(0, 53.733333333333334)" points="0,0 12,0 12,0" fill="#6B7279" visibility="hidden"/><text font-size="4.4829740591888925" fill="black"><tspan x="4" y="14.7">Boot or Logon</tspan><tspan x="4" y="29.366666666666667">Initialization</tspan><tspan x="4" y="44.03333333333333">Scripts</tspan></text></g><g class="technique T1577" transform="translate(0, 107.46666666666667)"><rect class="cell" height="53.733333333333334" width="79.10924369747899" fill="white" stroke="#6B7279"/><polygon class="sidebar" transform="translate(0, 53.733333333333334)" points="0,0 12,0 12,0" fill="#6B7279" visibility="hidden"/><text font-size="4.4829740591888925" fill="black"><tspan x="4" y="14.7">Compromise</tspan><tspan x="4" y="29.366666666666667">Application</tspan><tspan x="4" y="44.03333333333333">Executable</tspan></text></g><g class="technique T1645" transform="translate(0, 161.20000000000002)"><rect class="cell" height="53.733333333333334" width="79.10924369747899" fill="white" stroke="#6B7279"/><polygon class="sidebar" transform="translate(0, 53.733333333333334)" points="0,0 12,0 12,0" fill="#6B7279" visibility="hidden"/><text font-size="4.4829740591888925" fill="black"><tspan x="4" y="10.591666666666667">Compromise</tspan><tspan x="4" y="23.775">Client</tspan><tspan x="4" y="36.958333333333336">Software</tspan><tspan x="4" y="50.141666666666666">Binary</tspan></text></g><g class="technique T1624" transform="translate(0, 214.93333333333334)"><rect class="cell" height="53.733333333333334" width="79.10924369747899" fill="white" stroke="#6B7279"/><polygon class="sidebar" transform="translate(0, 53.733333333333334)" points="0,0 12,0 12,12" fill="#6B7279" visibility="hidden"/><text font-size="4.4829740591888925" fill="black"><tspan x="4" y="15.7">Event</tspan><tspan x="4" y="30.366666666666667">Triggered</tspan><tspan x="4" y="45.03333333333333">Execution</tspan></text></g><g class="technique T1541" transform="translate(0, 268.66666666666663)"><rect class="cell" height="53.733333333333334" width="79.10924369747899" fill="white" stroke="#6B7279"/><polygon class="sidebar" transform="translate(0, 53.733333333333334)" points="0,0 12,0 12,0" fill="#6B7279" visibility="hidden"/><text font-size="4.4829740591888925" fill="black"><tspan x="4" y="22.116666666666667">Foreground</tspan><tspan x="4" y="36.61666666666667">Persistence</tspan></text></g><g class="technique T1625" transform="translate(0, 322.40000000000003)"><rect class="cell" height="53.733333333333334" width="79.10924369747899" fill="white" stroke="#6B7279"/><polygon class="sidebar" transform="translate(0, 53.733333333333334)" points="0,0 12,0 12,12" fill="#6B7279" visibility="hidden"/><text font-size="4.4829740591888925" fill="black"><tspan x="4" y="15.7">Hijack</tspan><tspan x="4" y="30.366666666666667">Execution</tspan><tspan x="4" y="45.03333333333333">Flow</tspan></text></g><g class="technique T1603" transform="translate(0, 376.1333333333333)"><rect class="cell" height="53.733333333333334" width="79.10924369747899" fill="white" stroke="#6B7279"/><polygon class="sidebar" transform="translate(0, 53.733333333333334)" points="0,0 12,0 12,0" fill="#6B7279" visibility="hidden"/><text font-size="4.4829740591888925" fill="black"><tspan x="4" y="23.116666666666667">Scheduled</tspan><tspan x="4" y="37.61666666666667">Task/Job</tspan></text></g></g><g class="subtechniques"/><g class="tactic-label"><text font-size="8.59236694677871" fill="black" font-weight="bold"><tspan text-anchor="middle" x="39.554621848739494" y="29.366666666666667">Persistence</tspan></text></g></g><g class="tactic privilege-escalation" transform="translate(263.69747899159665, 0)"><g class="techniques"><g class="technique T1626" transform="translate(0, 53.733333333333334)"><rect class="cell" height="53.733333333333334" width="79.10924369747899" fill="white" stroke="#6B7279"/><polygon class="sidebar" transform="translate(0, 53.733333333333334)" points="0,0 12,0 12,12" fill="#6B7279" visibility="hidden"/><text font-size="4.4829740591888925" fill="black"><tspan x="4" y="10.591666666666667">Abuse</tspan><tspan x="4" y="23.775">Elevation</tspan><tspan x="4" y="36.958333333333336">Control</tspan><tspan x="4" y="50.141666666666666">Mechanism</tspan></text></g><g class="technique T1404" transform="translate(0, 107.46666666666667)"><rect class="cell" height="53.733333333333334" width="79.10924369747899" fill="white" stroke="#6B7279"/><polygon class="sidebar" transform="translate(0, 53.733333333333334)" points="0,0 12,0 12,0" fill="#6B7279" visibility="hidden"/><text font-size="4.4829740591888925" fill="black"><tspan x="4" y="9.591666666666667">Exploitation</tspan><tspan x="4" y="22.775">for</tspan><tspan x="4" y="35.958333333333336">Privilege</tspan><tspan x="4" y="49.141666666666666">Escalation</tspan></text></g><g class="technique T1631" transform="translate(0, 161.20000000000002)"><rect class="cell" height="53.733333333333334" width="79.10924369747899" fill="white" stroke="#6B7279"/><polygon class="sidebar" transform="translate(0, 53.733333333333334)" points="0,0 12,0 12,12" fill="#6B7279" visibility="hidden"/><text font-size="4.4829740591888925" fill="black"><tspan x="4" y="23.116666666666667">Process</tspan><tspan x="4" y="37.61666666666667">Injection</tspan></text></g></g><g class="subtechniques"/><g class="tactic-label"><text font-size="8.59236694677871" fill="black" font-weight="bold"><tspan text-anchor="middle" x="39.554621848739494" y="23.116666666666667">Privilege</tspan><tspan text-anchor="middle" x="39.554621848739494" y="37.61666666666667">Escalation</tspan></text></g></g><g class="tactic defense-evasion" transform="translate(351.5966386554622, 0)"><g class="techniques"><g class="technique T1407" transform="translate(0, 53.733333333333334)"><rect class="cell" height="53.733333333333334" width="79.10924369747899" fill="white" stroke="#6B7279"/><polygon class="sidebar" transform="translate(0, 53.733333333333334)" points="0,0 12,0 12,0" fill="#6B7279" visibility="hidden"/><text font-size="4.4829740591888925" fill="black"><tspan x="4" y="10.591666666666667">Download</tspan><tspan x="4" y="23.775">New</tspan><tspan x="4" y="36.958333333333336">Code at</tspan><tspan x="4" y="50.141666666666666">Runtime</tspan></text></g><g class="technique T1627" transform="translate(0, 107.46666666666667)"><rect class="cell" height="53.733333333333334" width="79.10924369747899" fill="white" stroke="#6B7279"/><polygon class="sidebar" transform="translate(0, 53.733333333333334)" points="0,0 12,0 12,12" fill="#6B7279" visibility="hidden"/><text font-size="4.4829740591888925" fill="black"><tspan x="4" y="23.116666666666667">Execution</tspan><tspan x="4" y="37.61666666666667">Guardrails</tspan></text></g><g class="technique T1541" transform="translate(0, 161.20000000000002)"><rect class="cell" height="53.733333333333334" width="79.10924369747899" fill="white" stroke="#6B7279"/><polygon class="sidebar" transform="translate(0, 53.733333333333334)" points="0,0 12,0 12,0" fill="#6B7279" visibility="hidden"/><text font-size="4.4829740591888925" fill="black"><tspan x="4" y="22.116666666666667">Foreground</tspan><tspan x="4" y="36.61666666666667">Persistence</tspan></text></g><g class="technique T1628" transform="translate(0, 214.93333333333334)"><rect class="cell" height="53.733333333333334" width="79.10924369747899" fill="white" stroke="#6B7279"/><polygon class="sidebar" transform="translate(0, 53.733333333333334)" points="0,0 12,0 12,12" fill="#6B7279" visibility="hidden"/><text font-size="4.4829740591888925" fill="black"><tspan x="4" y="23.116666666666667">Hide</tspan><tspan x="4" y="37.61666666666667">Artifacts</tspan></text></g><g class="technique T1617" transform="translate(0, 268.66666666666663)"><rect class="cell" height="53.733333333333334" width="79.10924369747899" fill="white" stroke="#6B7279"/><polygon class="sidebar" transform="translate(0, 53.733333333333334)" points="0,0 12,0 12,0" fill="#6B7279" visibility="hidden"/><text font-size="4.4829740591888925" fill="black"><tspan x="4" y="30.366666666666667">Hooking</tspan></text></g><g class="technique T1629" transform="translate(0, 322.40000000000003)"><rect class="cell" height="53.733333333333334" width="79.10924369747899" fill="white" stroke="#6B7279"/><polygon class="sidebar" transform="translate(0, 53.733333333333334)" points="0,0 12,0 12,12" fill="#6B7279" visibility="hidden"/><text font-size="4.4829740591888925" fill="black"><tspan x="4" y="23.116666666666667">Impair</tspan><tspan x="4" y="37.61666666666667">Defenses</tspan></text></g><g class="technique T1630" transform="translate(0, 376.1333333333333)"><rect class="cell" height="53.733333333333334" width="79.10924369747899" fill="white" stroke="#6B7279"/><polygon class="sidebar" transform="translate(0, 53.733333333333334)" points="0,0 12,0 12,12" fill="#6B7279" visibility="hidden"/><text font-size="4.4829740591888925" fill="black"><tspan x="4" y="15.7">Indicator</tspan><tspan x="4" y="30.366666666666667">Removal</tspan><tspan x="4" y="45.03333333333333">on Host</tspan></text></g><g class="technique T1516" transform="translate(0, 429.8666666666667)"><rect class="cell" height="53.733333333333334" width="79.10924369747899" fill="white" stroke="#6B7279"/><polygon class="sidebar" transform="translate(0, 53.733333333333334)" points="0,0 12,0 12,0" fill="#6B7279" visibility="hidden"/><text font-size="4.4829740591888925" fill="black"><tspan x="4" y="23.116666666666667">Input</tspan><tspan x="4" y="37.61666666666667">Injection</tspan></text></g><g class="technique T1575" transform="translate(0, 483.59999999999997)"><rect class="cell" height="53.733333333333334" width="79.10924369747899" fill="white" stroke="#6B7279"/><polygon class="sidebar" transform="translate(0, 53.733333333333334)" points="0,0 12,0 12,0" fill="#6B7279" visibility="hidden"/><text font-size="4.4829740591888925" fill="black"><tspan x="4" y="23.116666666666667">Native</tspan><tspan x="4" y="37.61666666666667">API</tspan></text></g><g class="technique T1406" transform="translate(0, 537.3333333333333)"><rect class="cell" height="53.733333333333334" width="79.10924369747899" fill="white" stroke="#6B7279"/><polygon class="sidebar" transform="translate(0, 53.733333333333334)" points="0,0 12,0 12,12" fill="#6B7279" visibility="hidden"/><text font-size="4.4829740591888925" fill="black"><tspan x="4" y="14.7">Obfuscated</tspan><tspan x="4" y="29.366666666666667">Files or</tspan><tspan x="4" y="44.03333333333333">Information</tspan></text></g><g class="technique T1631" transform="translate(0, 591.0666666666666)"><rect class="cell" height="53.733333333333334" width="79.10924369747899" fill="white" stroke="#6B7279"/><polygon class="sidebar" transform="translate(0, 53.733333333333334)" points="0,0 12,0 12,12" fill="#6B7279" visibility="hidden"/><text font-size="4.4829740591888925" fill="black"><tspan x="4" y="23.116666666666667">Process</tspan><tspan x="4" y="37.61666666666667">Injection</tspan></text></g><g class="technique T1604" transform="translate(0, 644.8000000000001)"><rect class="cell" height="53.733333333333334" width="79.10924369747899" fill="white" stroke="#6B7279"/><polygon class="sidebar" transform="translate(0, 53.733333333333334)" points="0,0 12,0 12,0" fill="#6B7279" visibility="hidden"/><text font-size="4.4829740591888925" fill="black"><tspan x="4" y="15.7">Proxy</tspan><tspan x="4" y="30.366666666666667">Through</tspan><tspan x="4" y="45.03333333333333">Victim</tspan></text></g><g class="technique T1632" transform="translate(0, 698.5333333333333)"><rect class="cell" height="53.733333333333334" width="79.10924369747899" fill="white" stroke="#6B7279"/><polygon class="sidebar" transform="translate(0, 53.733333333333334)" points="0,0 12,0 12,12" fill="#6B7279" visibility="hidden"/><text font-size="4.4829740591888925" fill="black"><tspan x="4" y="15.7">Subvert</tspan><tspan x="4" y="30.366666666666667">Trust</tspan><tspan x="4" y="45.03333333333333">Controls</tspan></text></g><g class="technique T1633" transform="translate(0, 752.2666666666667)"><rect class="cell" height="53.733333333333334" width="79.10924369747899" fill="white" stroke="#6B7279"/><polygon class="sidebar" transform="translate(0, 53.733333333333334)" points="0,0 12,0 12,12" fill="#6B7279" visibility="hidden"/><text font-size="4.4829740591888925" fill="black"><tspan x="4" y="21.116666666666667">Virtualization/Sandbox</tspan><tspan x="4" y="35.61666666666667">Evasion</tspan></text></g></g><g class="subtechniques"/><g class="tactic-label"><text font-size="8.59236694677871" fill="black" font-weight="bold"><tspan text-anchor="middle" x="39.554621848739494" y="23.116666666666667">Defense</tspan><tspan text-anchor="middle" x="39.554621848739494" y="37.61666666666667">Evasion</tspan></text></g></g><g class="tactic credential-access" transform="translate(439.4957983193277, 0)"><g class="techniques"><g class="technique T1517" transform="translate(0, 53.733333333333334)"><rect class="cell" height="53.733333333333334" width="79.10924369747899" fill="white" stroke="#6B7279"/><polygon class="sidebar" transform="translate(0, 53.733333333333334)" points="0,0 12,0 12,0" fill="#6B7279" visibility="hidden"/><text font-size="4.4829740591888925" fill="black"><tspan x="4" y="22.116666666666667">Access</tspan><tspan x="4" y="36.61666666666667">Notifications</tspan></text></g><g class="technique T1414" transform="translate(0, 107.46666666666667)"><rect class="cell" height="53.733333333333334" width="79.10924369747899" fill="white" stroke="#6B7279"/><polygon class="sidebar" transform="translate(0, 53.733333333333334)" points="0,0 12,0 12,0" fill="#6B7279" visibility="hidden"/><text font-size="4.4829740591888925" fill="black"><tspan x="4" y="23.116666666666667">Clipboard</tspan><tspan x="4" y="37.61666666666667">Data</tspan></text></g><g class="technique T1634" transform="translate(0, 161.20000000000002)"><rect class="cell" height="53.733333333333334" width="79.10924369747899" fill="white" stroke="#6B7279"/><polygon class="sidebar" transform="translate(0, 53.733333333333334)" points="0,0 12,0 12,12" fill="#6B7279" visibility="hidden"/><text font-size="4.4829740591888925" fill="black"><tspan x="4" y="9.591666666666667">Credentials</tspan><tspan x="4" y="22.775">from</tspan><tspan x="4" y="35.958333333333336">Password</tspan><tspan x="4" y="49.141666666666666">Store</tspan></text></g><g class="technique T1417" transform="translate(0, 214.93333333333334)"><rect class="cell" height="53.733333333333334" width="79.10924369747899" fill="white" stroke="#6B7279"/><polygon class="sidebar" transform="translate(0, 53.733333333333334)" points="0,0 12,0 12,12" fill="#6B7279" visibility="hidden"/><text font-size="4.4829740591888925" fill="black"><tspan x="4" y="23.116666666666667">Input</tspan><tspan x="4" y="37.61666666666667">Capture</tspan></text></g><g class="technique T1635" transform="translate(0, 268.66666666666663)"><rect class="cell" height="53.733333333333334" width="79.10924369747899" fill="white" stroke="#6B7279"/><polygon class="sidebar" transform="translate(0, 53.733333333333334)" points="0,0 12,0 12,12" fill="#6B7279" visibility="hidden"/><text font-size="4.4829740591888925" fill="black"><tspan x="4" y="9.591666666666667">Steal</tspan><tspan x="4" y="22.775">Application</tspan><tspan x="4" y="35.958333333333336">Access</tspan><tspan x="4" y="49.141666666666666">Token</tspan></text></g></g><g class="subtechniques"/><g class="tactic-label"><text font-size="8.59236694677871" fill="black" font-weight="bold"><tspan text-anchor="middle" x="39.554621848739494" y="23.116666666666667">Credential</tspan><tspan text-anchor="middle" x="39.554621848739494" y="37.61666666666667">Access</tspan></text></g></g><g class="tactic discovery" transform="translate(527.3949579831933, 0)"><g class="techniques"><g class="technique T1420" transform="translate(0, 53.733333333333334)"><rect class="cell" height="53.733333333333334" width="79.10924369747899" fill="white" stroke="#6B7279"/><polygon class="sidebar" transform="translate(0, 53.733333333333334)" points="0,0 12,0 12,0" fill="#6B7279" visibility="hidden"/><text font-size="4.4829740591888925" fill="black"><tspan x="4" y="15.7">File and</tspan><tspan x="4" y="30.366666666666667">Directory</tspan><tspan x="4" y="45.03333333333333">Discovery</tspan></text></g><g class="technique T1430" transform="translate(0, 107.46666666666667)"><rect class="cell" height="53.733333333333334" width="79.10924369747899" fill="white" stroke="#6B7279"/><polygon class="sidebar" transform="translate(0, 53.733333333333334)" points="0,0 12,0 12,12" fill="#6B7279" visibility="hidden"/><text font-size="4.4829740591888925" fill="black"><tspan x="4" y="23.116666666666667">Location</tspan><tspan x="4" y="37.61666666666667">Tracking</tspan></text></g><g class="technique T1423" transform="translate(0, 161.20000000000002)"><rect class="cell" height="53.733333333333334" width="79.10924369747899" fill="white" stroke="#6B7279"/><polygon class="sidebar" transform="translate(0, 53.733333333333334)" points="0,0 12,0 12,0" fill="#6B7279" visibility="hidden"/><text font-size="4.4829740591888925" fill="black"><tspan x="4" y="15.7">Network</tspan><tspan x="4" y="30.366666666666667">Service</tspan><tspan x="4" y="45.03333333333333">Scanning</tspan></text></g><g class="technique T1424" transform="translate(0, 214.93333333333334)"><rect class="cell" height="53.733333333333334" width="79.10924369747899" fill="white" stroke="#6B7279"/><polygon class="sidebar" transform="translate(0, 53.733333333333334)" points="0,0 12,0 12,0" fill="#6B7279" visibility="hidden"/><text font-size="4.4829740591888925" fill="black"><tspan x="4" y="23.116666666666667">Process</tspan><tspan x="4" y="37.61666666666667">Discovery</tspan></text></g><g class="technique T1418" transform="translate(0, 268.66666666666663)"><rect class="cell" height="53.733333333333334" width="79.10924369747899" fill="white" stroke="#6B7279"/><polygon class="sidebar" transform="translate(0, 53.733333333333334)" points="0,0 12,0 12,12" fill="#6B7279" visibility="hidden"/><text font-size="4.4829740591888925" fill="black"><tspan x="4" y="23.116666666666667">Software</tspan><tspan x="4" y="37.61666666666667">Discovery</tspan></text></g><g class="technique T1426" transform="translate(0, 322.40000000000003)"><rect class="cell" height="53.733333333333334" width="79.10924369747899" fill="white" stroke="#6B7279"/><polygon class="sidebar" transform="translate(0, 53.733333333333334)" points="0,0 12,0 12,0" fill="#6B7279" visibility="hidden"/><text font-size="4.4829740591888925" fill="black"><tspan x="4" y="14.7">System</tspan><tspan x="4" y="29.366666666666667">Information</tspan><tspan x="4" y="44.03333333333333">Discovery</tspan></text></g><g class="technique T1422" transform="translate(0, 376.1333333333333)"><rect class="cell" height="53.733333333333334" width="79.10924369747899" fill="white" stroke="#6B7279"/><polygon class="sidebar" transform="translate(0, 53.733333333333334)" points="0,0 12,0 12,0" fill="#6B7279" visibility="hidden"/><text font-size="4.4829740591888925" fill="black"><tspan x="4" y="9.591666666666667">System</tspan><tspan x="4" y="22.775">Network</tspan><tspan x="4" y="35.958333333333336">Configuration</tspan><tspan x="4" y="49.141666666666666">Discovery</tspan></text></g><g class="technique T1421" transform="translate(0, 429.8666666666667)"><rect class="cell" height="53.733333333333334" width="79.10924369747899" fill="white" stroke="#6B7279"/><polygon class="sidebar" transform="translate(0, 53.733333333333334)" points="0,0 12,0 12,0" fill="#6B7279" visibility="hidden"/><text font-size="4.4829740591888925" fill="black"><tspan x="4" y="9.591666666666667">System</tspan><tspan x="4" y="22.775">Network</tspan><tspan x="4" y="35.958333333333336">Connections</tspan><tspan x="4" y="49.141666666666666">Discovery</tspan></text></g></g><g class="subtechniques"/><g class="tactic-label"><text font-size="8.59236694677871" fill="black" font-weight="bold"><tspan text-anchor="middle" x="39.554621848739494" y="30.366666666666667">Discovery</tspan></text></g></g><g class="tactic lateral-movement" transform="translate(615.2941176470588, 0)"><g class="techniques"><g class="technique T1428" transform="translate(0, 53.733333333333334)"><rect class="cell" height="53.733333333333334" width="79.10924369747899" fill="white" stroke="#6B7279"/><polygon class="sidebar" transform="translate(0, 53.733333333333334)" points="0,0 12,0 12,0" fill="#6B7279" visibility="hidden"/><text font-size="4.4829740591888925" fill="black"><tspan x="4" y="14.7">Exploitation</tspan><tspan x="4" y="29.366666666666667">of Remote</tspan><tspan x="4" y="44.03333333333333">Services</tspan></text></g><g class="technique T1458" transform="translate(0, 107.46666666666667)"><rect class="cell" height="53.733333333333334" width="79.10924369747899" fill="white" stroke="#6B7279"/><polygon class="sidebar" transform="translate(0, 53.733333333333334)" points="0,0 12,0 12,0" fill="#6B7279" visibility="hidden"/><text font-size="4.4829740591888925" fill="black"><tspan x="4" y="9.591666666666667">Replication</tspan><tspan x="4" y="22.775">Through</tspan><tspan x="4" y="35.958333333333336">Removable</tspan><tspan x="4" y="49.141666666666666">Media</tspan></text></g></g><g class="subtechniques"/><g class="tactic-label"><text font-size="8.59236694677871" fill="black" font-weight="bold"><tspan text-anchor="middle" x="39.554621848739494" y="23.116666666666667">Lateral</tspan><tspan text-anchor="middle" x="39.554621848739494" y="37.61666666666667">Movement</tspan></text></g></g><g class="tactic collection" transform="translate(703.1932773109244, 0)"><g class="techniques"><g class="technique T1517" transform="translate(0, 53.733333333333334)"><rect class="cell" height="53.733333333333334" width="79.10924369747899" fill="white" stroke="#6B7279"/><polygon class="sidebar" transform="translate(0, 53.733333333333334)" points="0,0 12,0 12,0" fill="#6B7279" visibility="hidden"/><text font-size="4.4829740591888925" fill="black"><tspan x="4" y="22.116666666666667">Access</tspan><tspan x="4" y="36.61666666666667">Notifications</tspan></text></g><g class="technique T1638" transform="translate(0, 107.46666666666667)"><rect class="cell" height="53.733333333333334" width="79.10924369747899" fill="white" stroke="#6B7279"/><polygon class="sidebar" transform="translate(0, 53.733333333333334)" points="0,0 12,0 12,0" fill="#6B7279" visibility="hidden"/><text font-size="4.4829740591888925" fill="black"><tspan x="4" y="28.366666666666667">Adversary-in-the-Middle</tspan></text></g><g class="technique T1532" transform="translate(0, 161.20000000000002)"><rect class="cell" height="53.733333333333334" width="79.10924369747899" fill="white" stroke="#6B7279"/><polygon class="sidebar" transform="translate(0, 53.733333333333334)" points="0,0 12,0 12,0" fill="#6B7279" visibility="hidden"/><text font-size="4.4829740591888925" fill="black"><tspan x="4" y="15.7">Archive</tspan><tspan x="4" y="30.366666666666667">Collected</tspan><tspan x="4" y="45.03333333333333">Data</tspan></text></g><g class="technique T1429" transform="translate(0, 214.93333333333334)"><rect class="cell" height="53.733333333333334" width="79.10924369747899" fill="white" stroke="#6B7279"/><polygon class="sidebar" transform="translate(0, 53.733333333333334)" points="0,0 12,0 12,0" fill="#6B7279" visibility="hidden"/><text font-size="4.4829740591888925" fill="black"><tspan x="4" y="23.116666666666667">Audio</tspan><tspan x="4" y="37.61666666666667">Capture</tspan></text></g><g class="technique T1616" transform="translate(0, 268.66666666666663)"><rect class="cell" height="53.733333333333334" width="79.10924369747899" fill="white" stroke="#6B7279"/><polygon class="sidebar" transform="translate(0, 53.733333333333334)" points="0,0 12,0 12,0" fill="#6B7279" visibility="hidden"/><text font-size="4.4829740591888925" fill="black"><tspan x="4" y="23.116666666666667">Call</tspan><tspan x="4" y="37.61666666666667">Control</tspan></text></g><g class="technique T1414" transform="translate(0, 322.40000000000003)"><rect class="cell" height="53.733333333333334" width="79.10924369747899" fill="white" stroke="#6B7279"/><polygon class="sidebar" transform="translate(0, 53.733333333333334)" points="0,0 12,0 12,0" fill="#6B7279" visibility="hidden"/><text font-size="4.4829740591888925" fill="black"><tspan x="4" y="23.116666666666667">Clipboard</tspan><tspan x="4" y="37.61666666666667">Data</tspan></text></g><g class="technique T1533" transform="translate(0, 376.1333333333333)"><rect class="cell" height="53.733333333333334" width="79.10924369747899" fill="white" stroke="#6B7279"/><polygon class="sidebar" transform="translate(0, 53.733333333333334)" points="0,0 12,0 12,0" fill="#6B7279" visibility="hidden"/><text font-size="4.4829740591888925" fill="black"><tspan x="4" y="15.7">Data from</tspan><tspan x="4" y="30.366666666666667">Local</tspan><tspan x="4" y="45.03333333333333">System</tspan></text></g><g class="technique T1417" transform="translate(0, 429.8666666666667)"><rect class="cell" height="53.733333333333334" width="79.10924369747899" fill="white" stroke="#6B7279"/><polygon class="sidebar" transform="translate(0, 53.733333333333334)" points="0,0 12,0 12,12" fill="#6B7279" visibility="hidden"/><text font-size="4.4829740591888925" fill="black"><tspan x="4" y="23.116666666666667">Input</tspan><tspan x="4" y="37.61666666666667">Capture</tspan></text></g><g class="technique T1430" transform="translate(0, 483.59999999999997)"><rect class="cell" height="53.733333333333334" width="79.10924369747899" fill="white" stroke="#6B7279"/><polygon class="sidebar" transform="translate(0, 53.733333333333334)" points="0,0 12,0 12,12" fill="#6B7279" visibility="hidden"/><text font-size="4.4829740591888925" fill="black"><tspan x="4" y="23.116666666666667">Location</tspan><tspan x="4" y="37.61666666666667">Tracking</tspan></text></g><g class="technique T1636" transform="translate(0, 537.3333333333333)"><rect class="cell" height="53.733333333333334" width="79.10924369747899" fill="white" stroke="#6B7279"/><polygon class="sidebar" transform="translate(0, 53.733333333333334)" points="0,0 12,0 12,12" fill="#6B7279" visibility="hidden"/><text font-size="4.4829740591888925" fill="black"><tspan x="4" y="23.116666666666667">Protected</tspan><tspan x="4" y="37.61666666666667">User Data</tspan></text></g><g class="technique T1513" transform="translate(0, 591.0666666666666)"><rect class="cell" height="53.733333333333334" width="79.10924369747899" fill="white" stroke="#6B7279"/><polygon class="sidebar" transform="translate(0, 53.733333333333334)" points="0,0 12,0 12,0" fill="#6B7279" visibility="hidden"/><text font-size="4.4829740591888925" fill="black"><tspan x="4" y="23.116666666666667">Screen</tspan><tspan x="4" y="37.61666666666667">Capture</tspan></text></g><g class="technique T1409" transform="translate(0, 644.8000000000001)"><rect class="cell" height="53.733333333333334" width="79.10924369747899" fill="white" stroke="#6B7279"/><polygon class="sidebar" transform="translate(0, 53.733333333333334)" points="0,0 12,0 12,0" fill="#6B7279" visibility="hidden"/><text font-size="4.4829740591888925" fill="black"><tspan x="4" y="14.7">Stored</tspan><tspan x="4" y="29.366666666666667">Application</tspan><tspan x="4" y="44.03333333333333">Data</tspan></text></g><g class="technique T1512" transform="translate(0, 698.5333333333333)"><rect class="cell" height="53.733333333333334" width="79.10924369747899" fill="white" stroke="#6B7279"/><polygon class="sidebar" transform="translate(0, 53.733333333333334)" points="0,0 12,0 12,0" fill="#6B7279" visibility="hidden"/><text font-size="4.4829740591888925" fill="black"><tspan x="4" y="23.116666666666667">Video</tspan><tspan x="4" y="37.61666666666667">Capture</tspan></text></g></g><g class="subtechniques"/><g class="tactic-label"><text font-size="8.59236694677871" fill="black" font-weight="bold"><tspan text-anchor="middle" x="39.554621848739494" y="30.366666666666667">Collection</tspan></text></g></g><g class="tactic command-and-control" transform="translate(791.09243697479, 0)"><g class="techniques"><g class="technique T1437" transform="translate(0, 53.733333333333334)"><rect class="cell" height="53.733333333333334" width="79.10924369747899" fill="white" stroke="#6B7279"/><polygon class="sidebar" transform="translate(0, 53.733333333333334)" points="0,0 12,0 12,12" fill="#6B7279" visibility="hidden"/><text font-size="4.4829740591888925" fill="black"><tspan x="4" y="14.7">Application</tspan><tspan x="4" y="29.366666666666667">Layer</tspan><tspan x="4" y="44.03333333333333">Protocol</tspan></text></g><g class="technique T1616" transform="translate(0, 107.46666666666667)"><rect class="cell" height="53.733333333333334" width="79.10924369747899" fill="white" stroke="#6B7279"/><polygon class="sidebar" transform="translate(0, 53.733333333333334)" points="0,0 12,0 12,0" fill="#6B7279" visibility="hidden"/><text font-size="4.4829740591888925" fill="black"><tspan x="4" y="23.116666666666667">Call</tspan><tspan x="4" y="37.61666666666667">Control</tspan></text></g><g class="technique T1637" transform="translate(0, 161.20000000000002)"><rect class="cell" height="53.733333333333334" width="79.10924369747899" fill="white" stroke="#6B7279"/><polygon class="sidebar" transform="translate(0, 53.733333333333334)" points="0,0 12,0 12,12" fill="#6B7279" visibility="hidden"/><text font-size="4.4829740591888925" fill="black"><tspan x="4" y="23.116666666666667">Dynamic</tspan><tspan x="4" y="37.61666666666667">Resolution</tspan></text></g><g class="technique T1521" transform="translate(0, 214.93333333333334)"><rect class="cell" height="53.733333333333334" width="79.10924369747899" fill="white" stroke="#6B7279"/><polygon class="sidebar" transform="translate(0, 53.733333333333334)" points="0,0 12,0 12,12" fill="#6B7279" visibility="hidden"/><text font-size="4.4829740591888925" fill="black"><tspan x="4" y="23.116666666666667">Encrypted</tspan><tspan x="4" y="37.61666666666667">Channel</tspan></text></g><g class="technique T1544" transform="translate(0, 268.66666666666663)"><rect class="cell" height="53.733333333333334" width="79.10924369747899" fill="white" stroke="#6B7279"/><polygon class="sidebar" transform="translate(0, 53.733333333333334)" points="0,0 12,0 12,0" fill="#6B7279" visibility="hidden"/><text font-size="4.4829740591888925" fill="black"><tspan x="4" y="15.7">Ingress</tspan><tspan x="4" y="30.366666666666667">Tool</tspan><tspan x="4" y="45.03333333333333">Transfer</tspan></text></g><g class="technique T1509" transform="translate(0, 322.40000000000003)"><rect class="cell" height="53.733333333333334" width="79.10924369747899" fill="white" stroke="#6B7279"/><polygon class="sidebar" transform="translate(0, 53.733333333333334)" points="0,0 12,0 12,0" fill="#6B7279" visibility="hidden"/><text font-size="4.4829740591888925" fill="black"><tspan x="4" y="22.116666666666667">Non-Standard</tspan><tspan x="4" y="36.61666666666667">Port</tspan></text></g><g class="technique T1644" transform="translate(0, 376.1333333333333)"><rect class="cell" height="53.733333333333334" width="79.10924369747899" fill="white" stroke="#6B7279"/><polygon class="sidebar" transform="translate(0, 53.733333333333334)" points="0,0 12,0 12,0" fill="#6B7279" visibility="hidden"/><text font-size="4.4829740591888925" fill="black"><tspan x="4" y="15.7">Out</tspan><tspan x="4" y="30.366666666666667">of Band</tspan><tspan x="4" y="45.03333333333333">Data</tspan></text></g><g class="technique T1481" transform="translate(0, 429.8666666666667)"><rect class="cell" height="53.733333333333334" width="79.10924369747899" fill="white" stroke="#6B7279"/><polygon class="sidebar" transform="translate(0, 53.733333333333334)" points="0,0 12,0 12,12" fill="#6B7279" visibility="hidden"/><text font-size="4.4829740591888925" fill="black"><tspan x="4" y="23.116666666666667">Web</tspan><tspan x="4" y="37.61666666666667">Service</tspan></text></g></g><g class="subtechniques"/><g class="tactic-label"><text font-size="8.59236694677871" fill="black" font-weight="bold"><tspan text-anchor="middle" x="39.554621848739494" y="15.7">Command</tspan><tspan text-anchor="middle" x="39.554621848739494" y="30.366666666666667">and</tspan><tspan text-anchor="middle" x="39.554621848739494" y="45.03333333333333">Control</tspan></text></g></g><g class="tactic exfiltration" transform="translate(878.9915966386554, 0)"><g class="techniques"><g class="technique T1639" transform="translate(0, 53.733333333333334)"><rect class="cell" height="53.733333333333334" width="79.10924369747899" fill="white" stroke="#6B7279"/><polygon class="sidebar" transform="translate(0, 53.733333333333334)" points="0,0 12,0 12,12" fill="#6B7279" visibility="hidden"/><text font-size="4.4829740591888925" fill="black"><tspan x="4" y="9.591666666666667">Exfiltration</tspan><tspan x="4" y="22.775">Over</tspan><tspan x="4" y="35.958333333333336">Alternative</tspan><tspan x="4" y="49.141666666666666">Protocol</tspan></text></g><g class="technique T1646" transform="translate(0, 107.46666666666667)"><rect class="cell" height="53.733333333333334" width="79.10924369747899" fill="white" stroke="#6B7279"/><polygon class="sidebar" transform="translate(0, 53.733333333333334)" points="0,0 12,0 12,0" fill="#6B7279" visibility="hidden"/><text font-size="4.4829740591888925" fill="black"><tspan x="4" y="14.7">Exfiltration</tspan><tspan x="4" y="29.366666666666667">Over</tspan><tspan x="4" y="44.03333333333333">C2 Channel</tspan></text></g></g><g class="subtechniques"/><g class="tactic-label"><text font-size="8.59236694677871" fill="black" font-weight="bold"><tspan text-anchor="middle" x="39.554621848739494" y="29.366666666666667">Exfiltration</tspan></text></g></g><g class="tactic impact" transform="translate(966.890756302521, 0)"><g class="techniques"><g class="technique T1640" transform="translate(0, 53.733333333333334)"><rect class="cell" height="53.733333333333334" width="79.10924369747899" fill="white" stroke="#6B7279"/><polygon class="sidebar" transform="translate(0, 53.733333333333334)" points="0,0 12,0 12,0" fill="#6B7279" visibility="hidden"/><text font-size="4.4829740591888925" fill="black"><tspan x="4" y="15.7">Account</tspan><tspan x="4" y="30.366666666666667">Access</tspan><tspan x="4" y="45.03333333333333">Removal</tspan></text></g><g class="technique T1616" transform="translate(0, 107.46666666666667)"><rect class="cell" height="53.733333333333334" width="79.10924369747899" fill="white" stroke="#6B7279"/><polygon class="sidebar" transform="translate(0, 53.733333333333334)" points="0,0 12,0 12,0" fill="#6B7279" visibility="hidden"/><text font-size="4.4829740591888925" fill="black"><tspan x="4" y="23.116666666666667">Call</tspan><tspan x="4" y="37.61666666666667">Control</tspan></text></g><g class="technique T1471" transform="translate(0, 161.20000000000002)"><rect class="cell" height="53.733333333333334" width="79.10924369747899" fill="white" stroke="#6B7279"/><polygon class="sidebar" transform="translate(0, 53.733333333333334)" points="0,0 12,0 12,0" fill="#6B7279" visibility="hidden"/><text font-size="4.4829740591888925" fill="black"><tspan x="4" y="10.591666666666667">Data</tspan><tspan x="4" y="23.775">Encrypted</tspan><tspan x="4" y="36.958333333333336">for</tspan><tspan x="4" y="50.141666666666666">Impact</tspan></text></g><g class="technique T1641" transform="translate(0, 214.93333333333334)"><rect class="cell" height="53.733333333333334" width="79.10924369747899" fill="white" stroke="#6B7279"/><polygon class="sidebar" transform="translate(0, 53.733333333333334)" points="0,0 12,0 12,12" fill="#6B7279" visibility="hidden"/><text font-size="4.4829740591888925" fill="black"><tspan x="4" y="22.116666666666667">Data</tspan><tspan x="4" y="36.61666666666667">Manipulation</tspan></text></g><g class="technique T1642" transform="translate(0, 268.66666666666663)"><rect class="cell" height="53.733333333333334" width="79.10924369747899" fill="white" stroke="#6B7279"/><polygon class="sidebar" transform="translate(0, 53.733333333333334)" points="0,0 12,0 12,0" fill="#6B7279" visibility="hidden"/><text font-size="4.4829740591888925" fill="black"><tspan x="4" y="15.7">Endpoint</tspan><tspan x="4" y="30.366666666666667">Denial of</tspan><tspan x="4" y="45.03333333333333">Service</tspan></text></g><g class="technique T1643" transform="translate(0, 322.40000000000003)"><rect class="cell" height="53.733333333333334" width="79.10924369747899" fill="white" stroke="#6B7279"/><polygon class="sidebar" transform="translate(0, 53.733333333333334)" points="0,0 12,0 12,0" fill="#6B7279" visibility="hidden"/><text font-size="4.4829740591888925" fill="black"><tspan x="4" y="10.591666666666667">Generate</tspan><tspan x="4" y="23.775">Traffic</tspan><tspan x="4" y="36.958333333333336">from</tspan><tspan x="4" y="50.141666666666666">Victim</tspan></text></g><g class="technique T1516" transform="translate(0, 376.1333333333333)"><rect class="cell" height="53.733333333333334" width="79.10924369747899" fill="white" stroke="#6B7279"/><polygon class="sidebar" transform="translate(0, 53.733333333333334)" points="0,0 12,0 12,0" fill="#6B7279" visibility="hidden"/><text font-size="4.4829740591888925" fill="black"><tspan x="4" y="23.116666666666667">Input</tspan><tspan x="4" y="37.61666666666667">Injection</tspan></text></g><g class="technique T1464" transform="translate(0, 429.8666666666667)"><rect class="cell" height="53.733333333333334" width="79.10924369747899" fill="white" stroke="#6B7279"/><polygon class="sidebar" transform="translate(0, 53.733333333333334)" points="0,0 12,0 12,0" fill="#6B7279" visibility="hidden"/><text font-size="4.4829740591888925" fill="black"><tspan x="4" y="15.7">Network</tspan><tspan x="4" y="30.366666666666667">Denial of</tspan><tspan x="4" y="45.03333333333333">Service</tspan></text></g><g class="technique T1582" transform="translate(0, 483.59999999999997)"><rect class="cell" height="53.733333333333334" width="79.10924369747899" fill="white" stroke="#6B7279"/><polygon class="sidebar" transform="translate(0, 53.733333333333334)" points="0,0 12,0 12,0" fill="#6B7279" visibility="hidden"/><text font-size="4.4829740591888925" fill="black"><tspan x="4" y="23.116666666666667">SMS</tspan><tspan x="4" y="37.61666666666667">Control</tspan></text></g></g><g class="subtechniques"/><g class="tactic-label"><text font-size="8.59236694677871" fill="black" font-weight="bold"><tspan text-anchor="middle" x="39.554621848739494" y="30.366666666666667">Impact</tspan></text></g></g></g></g></g></svg>