<svg xmlns="http://www.w3.org/2000/svg" width="1976" height="1160" style="font-family: Arial, sans-serif;"><g><rect x="0" y="0" width="150" height="40" fill="#0B2A53"/><text x="75" y="21" font-size="13" fill="white" font-weight="bold" text-anchor="middle"><tspan x="75" dy="0">Enterprise</tspan></text><rect x="152" y="0" width="150" height="40" fill="#0B2A53"/><text x="227" y="21" font-size="13" fill="white" font-weight="bold" text-anchor="middle"><tspan x="227" dy="0">Enterprise</tspan></text><rect x="304" y="0" width="150" height="40" fill="#0B2A53"/><text x="379" y="21" font-size="13" fill="white" font-weight="bold" text-anchor="middle"><tspan x="379" dy="0">Enterprise</tspan></text><rect x="456" y="0" width="150" height="40" fill="#0B2A53"/><text x="531" y="21" font-size="13" fill="white" font-weight="bold" text-anchor="middle"><tspan x="531" dy="0">Enterprise</tspan></text><rect x="608" y="0" width="150" height="40" fill="#0B2A53"/><text x="683" y="21" font-size="13" fill="white" font-weight="bold" text-anchor="middle"><tspan x="683" dy="0">Unknown</tspan></text><rect x="760" y="0" width="150" height="40" fill="#0B2A53"/><text x="835" y="21" font-size="13" fill="white" font-weight="bold" text-anchor="middle"><tspan x="835" dy="0">Enterprise</tspan></text><rect x="912" y="0" width="150" height="40" fill="#0B2A53"/><text x="987" y="21" font-size="13" fill="white" font-weight="bold" text-anchor="middle"><tspan x="987" dy="0">Enterprise</tspan></text><rect x="1064" y="0" width="150" height="40" fill="#0B2A53"/><text x="1139" y="21" font-size="13" fill="white" font-weight="bold" text-anchor="middle"><tspan x="1139" dy="0">Enterprise</tspan></text><rect x="1216" y="0" width="150" height="40" fill="#0B2A53"/><text x="1291" y="21" font-size="13" fill="white" font-weight="bold" text-anchor="middle"><tspan x="1291" dy="0">Enterprise</tspan></text><rect x="1368" y="0" width="150" height="40" fill="#0B2A53"/><text x="1443" y="21" font-size="13" fill="white" font-weight="bold" text-anchor="middle"><tspan x="1443" dy="0">Enterprise</tspan></text><rect x="1520" y="0" width="150" height="40" fill="#0B2A53"/><text x="1595" y="21" font-size="13" fill="white" font-weight="bold" text-anchor="middle"><tspan x="1595" dy="0">Enterprise</tspan></text><rect x="1672" y="0" width="150" height="40" fill="#0B2A53"/><text x="1747" y="21" font-size="13" fill="white" font-weight="bold" text-anchor="middle"><tspan x="1747" dy="0">Enterprise</tspan></text><rect x="1824" y="0" width="150" height="40" fill="#0B2A53"/><text x="1899" y="21" font-size="13" fill="white" font-weight="bold" text-anchor="middle"><tspan x="1899" dy="0">Enterprise</tspan></text><rect x="0" y="40" width="150" height="90" fill="#eeeeee"/><text x="75" y="61" font-size="13" fill="black" font-weight="normal" text-anchor="middle"><tspan x="75" dy="0">Phishing:</tspan><tspan x="75" dy="15">Spearphishing</tspan><tspan x="75" dy="15">Attachment</tspan></text><rect x="152" y="40" width="150" height="90" fill="#eeeeee"/><text x="227" y="61" font-size="13" fill="black" font-weight="normal" text-anchor="middle"><tspan x="227" dy="0">User Execution:</tspan><tspan x="227" dy="15">Malicious File</tspan></text><rect x="152" y="132" width="150" height="90" fill="#dddddd"/><text x="227" y="153" font-size="13" fill="black" font-weight="normal" text-anchor="middle"><tspan x="227" dy="0">System Services:</tspan><tspan x="227" dy="15">Service Execution</tspan></text><rect x="152" y="224" width="150" height="90" fill="#eeeeee"/><text x="227" y="245" font-size="13" fill="black" font-weight="normal" text-anchor="middle"><tspan x="227" dy="0">Windows Management</tspan><tspan x="227" dy="15">Instrumentation</tspan></text><rect x="152" y="316" width="150" height="90" fill="#dddddd"/><text x="227" y="337" font-size="13" fill="black" font-weight="normal" text-anchor="middle"><tspan x="227" dy="0">Command and</tspan><tspan x="227" dy="15">Scripting</tspan><tspan x="227" dy="15">Interpreter:</tspan><tspan x="227" dy="15">PowerShell</tspan></text><rect x="152" y="408" width="150" height="90" fill="#eeeeee"/><text x="227" y="429" font-size="13" fill="black" font-weight="normal" text-anchor="middle"><tspan x="227" dy="0">Command and</tspan><tspan x="227" dy="15">Scripting</tspan><tspan x="227" dy="15">Interpreter: Visual</tspan><tspan x="227" dy="15">Basic</tspan></text><rect x="304" y="40" width="150" height="90" fill="#eeeeee"/><text x="379" y="61" font-size="13" fill="black" font-weight="normal" text-anchor="middle"><tspan x="379" dy="0">Create Account</tspan></text><rect x="304" y="132" width="150" height="90" fill="#dddddd"/><text x="379" y="153" font-size="13" fill="black" font-weight="normal" text-anchor="middle"><tspan x="379" dy="0">Create or Modify</tspan><tspan x="379" dy="15">System Process:</tspan><tspan x="379" dy="15">Windows Service</tspan></text><rect x="456" y="40" width="150" height="90" fill="#eeeeee"/><text x="531" y="61" font-size="13" fill="black" font-weight="normal" text-anchor="middle"><tspan x="531" dy="0">Account</tspan><tspan x="531" dy="15">Manipulation</tspan></text><rect x="456" y="132" width="150" height="90" fill="#dddddd"/><text x="531" y="153" font-size="13" fill="black" font-weight="normal" text-anchor="middle"><tspan x="531" dy="0">Domain Policy</tspan><tspan x="531" dy="15">Modification: Group</tspan><tspan x="531" dy="15">Policy Modification</tspan></text><rect x="608" y="40" width="150" height="90" fill="#eeeeee"/><text x="683" y="61" font-size="13" fill="black" font-weight="normal" text-anchor="middle"><tspan x="683" dy="0">Hijack Execution</tspan><tspan x="683" dy="15">Flow: DLL Search</tspan><tspan x="683" dy="15">Order Hijacking</tspan></text><rect x="760" y="40" width="150" height="90" fill="#eeeeee"/><text x="835" y="61" font-size="13" fill="black" font-weight="normal" text-anchor="middle"><tspan x="835" dy="0">System Binary Proxy</tspan><tspan x="835" dy="15">Execution: Regsvr32</tspan></text><rect x="760" y="132" width="150" height="90" fill="#dddddd"/><text x="835" y="153" font-size="13" fill="black" font-weight="normal" text-anchor="middle"><tspan x="835" dy="0">Indicator Removal</tspan><tspan x="835" dy="15">on Host: File</tspan><tspan x="835" dy="15">Deletion</tspan></text><rect x="760" y="224" width="150" height="90" fill="#eeeeee"/><text x="835" y="245" font-size="13" fill="black" font-weight="normal" text-anchor="middle"><tspan x="835" dy="0">Modify Registry</tspan></text><rect x="760" y="316" width="150" height="90" fill="#dddddd"/><text x="835" y="337" font-size="13" fill="black" font-weight="normal" text-anchor="middle"><tspan x="835" dy="0">Deobfuscate/Decode</tspan><tspan x="835" dy="15">Files or</tspan><tspan x="835" dy="15">Information</tspan></text><rect x="760" y="408" width="150" height="90" fill="#eeeeee"/><text x="835" y="429" font-size="13" fill="black" font-weight="normal" text-anchor="middle"><tspan x="835" dy="0">Impair Defenses:</tspan><tspan x="835" dy="15">Disable or Modify</tspan><tspan x="835" dy="15">Tools</tspan></text><rect x="760" y="500" width="150" height="90" fill="#dddddd"/><text x="835" y="521" font-size="13" fill="black" font-weight="normal" text-anchor="middle"><tspan x="835" dy="0">Impair Defenses:</tspan><tspan x="835" dy="15">Disable or Modify</tspan><tspan x="835" dy="15">System Firewall</tspan></text><rect x="760" y="592" width="150" height="90" fill="#eeeeee"/><text x="835" y="613" font-size="13" fill="black" font-weight="normal" text-anchor="middle"><tspan x="835" dy="0">Impair Defenses:</tspan><tspan x="835" dy="15">Safe Mode Boot</tspan></text><rect x="760" y="684" width="150" height="90" fill="#dddddd"/><text x="835" y="705" font-size="13" fill="black" font-weight="normal" text-anchor="middle"><tspan x="835" dy="0">Debugger Evasion</tspan></text><rect x="760" y="776" width="150" height="90" fill="#eeeeee"/><text x="835" y="797" font-size="13" fill="black" font-weight="normal" text-anchor="middle"><tspan x="835" dy="0">Modify Registry</tspan></text><rect x="760" y="868" width="150" height="90" fill="#dddddd"/><text x="835" y="889" font-size="13" fill="black" font-weight="normal" text-anchor="middle"><tspan x="835" dy="0"/><tspan x="835" dy="15">Virtualization/Sandbox</tspan><tspan x="835" dy="15">Evasion</tspan></text><rect x="912" y="40" width="150" height="90" fill="#eeeeee"/><text x="987" y="61" font-size="13" fill="black" font-weight="normal" text-anchor="middle"><tspan x="987" dy="0">Credentials from</tspan><tspan x="987" dy="15">Password Stores</tspan></text><rect x="1064" y="40" width="150" height="90" fill="#eeeeee"/><text x="1139" y="61" font-size="13" fill="black" font-weight="normal" text-anchor="middle"><tspan x="1139" dy="0">Account Discovery:</tspan><tspan x="1139" dy="15">Domain Account</tspan></text><rect x="1064" y="132" width="150" height="90" fill="#dddddd"/><text x="1139" y="153" font-size="13" fill="black" font-weight="normal" text-anchor="middle"><tspan x="1139" dy="0">System Network</tspan><tspan x="1139" dy="15">Configuration</tspan><tspan x="1139" dy="15">Discovery</tspan></text><rect x="1064" y="224" width="150" height="90" fill="#eeeeee"/><text x="1139" y="245" font-size="13" fill="black" font-weight="normal" text-anchor="middle"><tspan x="1139" dy="0">System Information</tspan><tspan x="1139" dy="15">Discovery</tspan></text><rect x="1064" y="316" width="150" height="90" fill="#dddddd"/><text x="1139" y="337" font-size="13" fill="black" font-weight="normal" text-anchor="middle"><tspan x="1139" dy="0">File and Directory</tspan><tspan x="1139" dy="15">Discovery</tspan></text><rect x="1216" y="40" width="150" height="90" fill="#eeeeee"/><text x="1291" y="61" font-size="13" fill="black" font-weight="normal" text-anchor="middle"><tspan x="1291" dy="0">Remote Services:</tspan><tspan x="1291" dy="15">Remote Desktop</tspan><tspan x="1291" dy="15">Protocol</tspan></text><rect x="1368" y="40" width="150" height="90" fill="#eeeeee"/><text x="1443" y="61" font-size="13" fill="black" font-weight="normal" text-anchor="middle"><tspan x="1443" dy="0">Archive Collected</tspan><tspan x="1443" dy="15">Data: Archive via</tspan><tspan x="1443" dy="15">Utility</tspan></text><rect x="1520" y="40" width="150" height="90" fill="#eeeeee"/><text x="1595" y="61" font-size="13" fill="black" font-weight="normal" text-anchor="middle"><tspan x="1595" dy="0">Exfiltration Over</tspan><tspan x="1595" dy="15">Web Service</tspan></text><rect x="1672" y="40" width="150" height="90" fill="#eeeeee"/><text x="1747" y="61" font-size="13" fill="black" font-weight="normal" text-anchor="middle"><tspan x="1747" dy="0">Remote Access</tspan><tspan x="1747" dy="15">Software</tspan></text><rect x="1672" y="132" width="150" height="90" fill="#dddddd"/><text x="1747" y="153" font-size="13" fill="black" font-weight="normal" text-anchor="middle"><tspan x="1747" dy="0">Encrypted Channel</tspan></text><rect x="1672" y="224" width="150" height="90" fill="#eeeeee"/><text x="1747" y="245" font-size="13" fill="black" font-weight="normal" text-anchor="middle"><tspan x="1747" dy="0">Encrypted Channel</tspan></text><rect x="1672" y="316" width="150" height="90" fill="#dddddd"/><text x="1747" y="337" font-size="13" fill="black" font-weight="normal" text-anchor="middle"><tspan x="1747" dy="0">Ingress Tool</tspan><tspan x="1747" dy="15">Transfer</tspan></text><rect x="1824" y="40" width="150" height="90" fill="#eeeeee"/><text x="1899" y="61" font-size="13" fill="black" font-weight="normal" text-anchor="middle"><tspan x="1899" dy="0">Data Encrypted for</tspan><tspan x="1899" dy="15">Impact</tspan></text><rect x="1824" y="132" width="150" height="90" fill="#dddddd"/><text x="1899" y="153" font-size="13" fill="black" font-weight="normal" text-anchor="middle"><tspan x="1899" dy="0">Service Stop</tspan></text><rect x="1824" y="224" width="150" height="90" fill="#eeeeee"/><text x="1899" y="245" font-size="13" fill="black" font-weight="normal" text-anchor="middle"><tspan x="1899" dy="0">Inhibit System</tspan><tspan x="1899" dy="15">Recovery</tspan></text><rect x="1824" y="316" width="150" height="90" fill="#dddddd"/><text x="1899" y="337" font-size="13" fill="black" font-weight="normal" text-anchor="middle"><tspan x="1899" dy="0">Internal Defacement</tspan></text><rect x="1824" y="408" width="150" height="90" fill="#eeeeee"/><text x="1899" y="429" font-size="13" fill="black" font-weight="normal" text-anchor="middle"><tspan x="1899" dy="0">Financial Theft</tspan></text></g></svg>