<svg xmlns="http://www.w3.org/2000/svg" width="1000" height="900"><g transform="translate(20, 20)"><line x1="0" y1="430" x2="960" y2="430" stroke="#005b94" stroke-width="3"/><g class="action" transform="translate(0, 430)"><line x1="0" x2="0" y1="-50" stroke="#d4d4d3" stroke-width="1"/><g class="label" transform="translate(-5.3999999999999995, -150)"><rect width="180" height="100" stroke="#d4d4d3" stroke-width="1" fill="#f1f3f4"/><text x="7" y="20" fill="black" font-size="11pt" font-weight="bold">2/1/2025, 11:00:00 AM</text><text x="7" y="37" fill="black" font-size="11pt" font-weight="bold">Active Scanning</text><text x="7" y="54" fill="black" font-size="11pt" font-weight="regular">Scans for vulnerable</text><text x="7" y="71" fill="black" font-size="11pt" font-weight="regular">phpMyAdmin instances</text></g><circle r="6" stroke="#005b94" stroke-width="3" fill="white"/></g><g class="action" transform="translate(320, 430)"><line x1="0" x2="0" y1="50" stroke="#d4d4d3" stroke-width="1"/><g class="label" transform="translate(-61.8, 50)"><rect width="180" height="100" stroke="#d4d4d3" stroke-width="1" fill="#f1f3f4"/><text x="7" y="20" fill="black" font-size="11pt" font-weight="bold">2/1/2025, 12:00:00 PM</text><text x="7" y="37" fill="black" font-size="11pt" font-weight="bold">Exploit Public-Facing</text><text x="7" y="54" fill="black" font-size="11pt" font-weight="regular">Application</text><text x="7" y="71" fill="black" font-size="11pt" font-weight="regular">Exploits phpMyAdmin CVE</text><text x="7" y="88" fill="black" font-size="11pt" font-weight="regular">to get code execution</text></g><circle r="6" stroke="#005b94" stroke-width="3" fill="white"/></g><g class="action" transform="translate(480, 430)"><line x1="0" x2="0" y1="-50" stroke="#d4d4d3" stroke-width="1"/><g class="label" transform="translate(-90, -150)"><rect width="180" height="100" stroke="#d4d4d3" stroke-width="1" fill="#f1f3f4"/><text x="7" y="20" fill="black" font-size="11pt" font-weight="bold">2/1/2025, 12:30:00 PM</text><text x="7" y="37" fill="black" font-size="11pt" font-weight="bold">Web Shell</text><text x="7" y="54" fill="black" font-size="11pt" font-weight="regular">Installs a web shell</text><text x="7" y="71" fill="black" font-size="11pt" font-weight="regular">for persistence</text></g><circle r="6" stroke="#005b94" stroke-width="3" fill="white"/></g><g class="action" transform="translate(800, 430)"><line x1="0" x2="0" y1="50" stroke="#d4d4d3" stroke-width="1"/><g class="label" transform="translate(-146.4, 50)"><rect width="180" height="100" stroke="#d4d4d3" stroke-width="1" fill="#f1f3f4"/><text x="7" y="20" fill="black" font-size="11pt" font-weight="bold">2/1/2025, 1:30:00 PM</text><text x="7" y="37" fill="black" font-size="11pt" font-weight="bold">Setuid and Setgid</text><text x="7" y="54" fill="black" font-size="11pt" font-weight="regular">Takes advantage of an</text><text x="7" y="71" fill="black" font-size="11pt" font-weight="regular">incorrectly configur…</text></g><circle r="6" stroke="#005b94" stroke-width="3" fill="white"/></g><g class="action" transform="translate(800, 430)"><line x1="0" x2="0" y1="-50" stroke="#d4d4d3" stroke-width="1"/><g class="label" transform="translate(-146.4, -150)"><rect width="180" height="100" stroke="#d4d4d3" stroke-width="1" fill="#f1f3f4"/><text x="7" y="20" fill="black" font-size="11pt" font-weight="bold">2/1/2025, 1:30:00 PM</text><text x="7" y="37" fill="black" font-size="11pt" font-weight="bold">/etc/passwd and</text><text x="7" y="54" fill="black" font-size="11pt" font-weight="regular">/etc/shadow</text><text x="7" y="71" fill="black" font-size="11pt" font-weight="regular">Takes advantage of an</text><text x="7" y="88" fill="black" font-size="11pt" font-weight="regular">incorrectly configur…</text></g><circle r="6" stroke="#005b94" stroke-width="3" fill="white"/></g><g class="action" transform="translate(880, 430)"><line x1="0" x2="0" y1="160" stroke="#d4d4d3" stroke-width="1"/><g class="label" transform="translate(-160.5, 160)"><rect width="180" height="100" stroke="#d4d4d3" stroke-width="1" fill="#f1f3f4"/><text x="7" y="20" fill="black" font-size="11pt" font-weight="bold">2/1/2025, 1:45:00 PM</text><text x="7" y="37" fill="black" font-size="11pt" font-weight="bold">Internal Defacement</text><text x="7" y="54" fill="black" font-size="11pt" font-weight="regular">Takes advantage of an</text><text x="7" y="71" fill="black" font-size="11pt" font-weight="regular">incorrectly configur…</text></g><circle r="6" stroke="#005b94" stroke-width="3" fill="white"/></g><g class="action" transform="translate(960, 430)"><line x1="0" x2="0" y1="-160" stroke="#d4d4d3" stroke-width="1"/><g class="label" transform="translate(-174.6, -260)"><rect width="180" height="100" stroke="#d4d4d3" stroke-width="1" fill="#f1f3f4"/><text x="7" y="20" fill="black" font-size="11pt" font-weight="bold">2/1/2025, 2:00:00 PM</text><text x="7" y="37" fill="black" font-size="11pt" font-weight="bold">Password Cracking</text><text x="7" y="54" fill="black" font-size="11pt" font-weight="regular">Brute forces password</text><text x="7" y="71" fill="black" font-size="11pt" font-weight="regular">hashes to recover…</text></g><circle r="6" stroke="#005b94" stroke-width="3" fill="white"/></g><g class="action" transform="translate(960, 430)"><line x1="0" x2="0" y1="270" stroke="#d4d4d3" stroke-width="1"/><g class="label" transform="translate(-174.6, 270)"><rect width="180" height="100" stroke="#d4d4d3" stroke-width="1" fill="#f1f3f4"/><text x="7" y="20" fill="black" font-size="11pt" font-weight="bold">2/1/2025, 2:00:00 PM</text><text x="7" y="37" fill="black" font-size="11pt" font-weight="bold">SSH</text><text x="7" y="54" fill="black" font-size="11pt" font-weight="regular">Uses recovered</text><text x="7" y="71" fill="black" font-size="11pt" font-weight="regular">passwords to access…</text></g><circle r="6" stroke="#005b94" stroke-width="3" fill="white"/></g></g></svg>